<?xml version="1.0" encoding="utf-8"?>
<!-- Generator: Adobe Illustrator 25.4.1, SVG Export Plug-In . SVG Version: 6.00 Build 0)  -->
<svg version="1.1" id="Layer_1" xmlns="http://www.w3.org/2000/svg" xmlns:xlink="http://www.w3.org/1999/xlink" x="0px" y="0px"
	 viewBox="0 0 29.9 34.4" style="enable-background:new 0 0 29.9 34.4;" xml:space="preserve">
<style type="text/css">
	.st0{fill:#3D3D3B;}
</style>
<g>
	<path class="st0" d="M14.4,8.2h0.4c1.2,0.1,2.3,0.3,3.4,0.7c1,0.4,2,1,2.9,1.8c0.1,0.1,0.2,0.4,0.1,0.6c-0.1,0.2-0.4,0.4-0.6,0.4
		c-0.1,0-0.3-0.1-0.4-0.2c-1.4-1.2-3.2-2-5-2.2c-1.2-0.1-2.5,0.1-3.7,0.5c-1,0.4-1.9,1-2.7,1.7c-0.1,0.1-0.4,0.2-0.6,0.1
		c-0.2-0.1-0.4-0.4-0.3-0.7c0.1-0.2,0.2-0.3,0.4-0.4C10.1,9,12.2,8.2,14.4,8.2"/>
	<path class="st0" d="M13.8,10.3c1.4-0.1,2.8,0.1,4,0.6c1.8,0.7,3.3,1.9,4.3,3.4c0.1,0.2,0.1,0.6-0.2,0.7c-0.2,0.1-0.6,0.1-0.7-0.1
		c-0.6-0.9-1.3-1.6-2.1-2.2c-1-0.7-2.2-1.2-3.4-1.3c-1.4-0.2-2.9,0-4.1,0.6c-1.4,0.6-2.6,1.6-3.4,2.9c-0.1,0.2-0.5,0.4-0.7,0.1
		c-0.2-0.1-0.3-0.5-0.1-0.7c0.7-1.1,1.8-2.1,2.9-2.8C11.2,10.9,12.5,10.4,13.8,10.3"/>
	<path class="st0" d="M10.9,13.5c1.1-0.7,2.4-1.1,3.7-1.1c1.2,0,2.4,0.4,3.4,1c0.9,0.5,1.6,1.2,2.2,2.1c0.9,1.2,1.3,2.8,1.4,4.2
		c0,0.4,0,0.7-0.1,1c-0.2,0.7-0.7,1.4-1.5,1.8c-0.5,0.2-1.2,0.3-1.8,0.1c-0.5-0.1-1-0.4-1.3-0.9c-0.4-0.4-0.5-1-0.6-1.5
		c0-0.3,0-0.6,0-0.9c-0.1-0.5-0.4-1-0.9-1.3c-0.4-0.3-1-0.4-1.4-0.2c-0.4,0.1-0.8,0.4-1,0.7c-0.4,0.5-0.5,1.2-0.4,1.8
		c0.1,0.8,0.5,1.5,1,2.2c0.4,0.5,0.9,1,1.5,1.4c0.2,0.1,0.5,0.4,0.8,0.4c0.1,0.1,0.2,0,0.4,0.1c0.2,0.1,0.4,0.3,0.4,0.6
		c0,0.2-0.2,0.4-0.4,0.4h-0.1c-0.3,0-0.6-0.1-0.9-0.3c-0.4-0.2-0.9-0.5-1.2-0.8c-0.5-0.4-1-1-1.4-1.5c-0.5-0.7-0.9-1.5-1-2.3
		c-0.1-0.8,0-1.7,0.4-2.4c0.3-0.5,0.8-1,1.3-1.2c0.7-0.3,1.4-0.3,2-0.1c0.6,0.2,1,0.6,1.4,1.1s0.5,1.1,0.6,1.7c0,0.3,0,0.6,0.1,0.9
		c0.1,0.4,0.5,0.9,1,1c0.4,0.1,1,0.1,1.3-0.2c0.4-0.3,0.6-0.7,0.6-1.2c0-1.1-0.2-2.3-0.7-3.2c-0.5-1-1.3-1.9-2.3-2.6
		c-0.8-0.5-1.8-0.8-2.7-0.8c-1.2-0.1-2.3,0.3-3.3,0.9c-1,0.7-1.8,1.5-2.3,2.6c-0.5,1.2-0.7,2.5-0.5,3.8c0.1,1,0.6,2,1.2,2.8
		c0.1,0.2,0.1,0.6-0.1,0.7c-0.2,0.2-0.6,0.1-0.7-0.1c-1-1.2-1.5-2.7-1.6-4.2c-0.1-1.3,0.2-2.6,0.8-3.8C9,15.1,9.9,14.2,10.9,13.5"/>
	<path class="st0" d="M13.6,14.6c1-0.2,2-0.1,3,0.3c1,0.4,1.8,1.2,2.3,2c0.4,0.8,0.7,1.8,0.7,2.6c0,0.3-0.2,0.5-0.5,0.5
		c-0.2,0-0.5-0.1-0.6-0.4c0-0.1,0-0.2,0-0.3c0-0.7-0.2-1.3-0.5-1.9c-0.4-0.8-1.1-1.4-2-1.8c-0.8-0.4-1.8-0.4-2.6-0.1
		c-0.8,0.2-1.5,0.8-2,1.5c-0.7,1-0.9,2-0.7,3.1c0.1,0.9,0.6,1.7,1,2.3c0.4,0.7,1,1.3,1.5,1.9c0.1,0.1,0.1,0.3,0.1,0.4
		c0,0.2-0.2,0.4-0.5,0.4h-0.1c-0.2,0-0.4-0.2-0.5-0.4c-0.6-0.7-1.2-1.4-1.6-2.2c-0.5-0.9-1-1.8-1-2.8c-0.1-1.5,0.3-2.9,1.2-4
		C11.7,15.4,12.6,14.8,13.6,14.6"/>
	<path class="st0" d="M14.5,18.8c0.2-0.1,0.4,0.1,0.6,0.3c0.1,0.1,0.1,0.4,0.1,0.5c0.1,1.1,0.6,2.1,1.3,2.9c0.4,0.4,1,0.8,1.5,0.9
		c0.1,0.1,0.4,0,0.5,0.1c0.2,0.1,0.4,0.3,0.4,0.5c0,0.3-0.3,0.5-0.5,0.5c-0.4,0-0.9-0.1-1.3-0.3c-0.6-0.3-1.1-0.7-1.5-1.2
		c-0.9-1-1.5-2.3-1.5-3.7C14,19,14.2,18.8,14.5,18.8"/>
</g>
</svg>
