<?xml version="1.0" encoding="utf-8"?>
<!-- Generator: Adobe Illustrator 25.4.1, SVG Export Plug-In . SVG Version: 6.00 Build 0)  -->
<svg version="1.1" id="Layer_1" xmlns="http://www.w3.org/2000/svg" xmlns:xlink="http://www.w3.org/1999/xlink" x="0px" y="0px"
	 viewBox="0 0 29.9 34.4" style="enable-background:new 0 0 29.9 34.4;" xml:space="preserve">
<style type="text/css">
	.st0{fill:#3D3D3B;}
	.st1{fill:none;stroke:#3D3D3B;stroke-width:0.5;stroke-miterlimit:10;}
</style>
<path class="st0" d="M12.3,25.8c-0.2,0-0.3,0-0.5-0.1l-5.1-2.1C6.3,23.3,6,22.9,6,22.4V9.9c0-0.7,0.6-1.2,1.2-1.2h9
	c0.7,0,1.2,0.6,1.2,1.2v4.6c0,0.2-0.2,0.3-0.3,0.3c-0.2,0-0.3-0.2-0.3-0.3V9.9c0-0.3-0.2-0.6-0.6-0.6H7.8l4.9,2
	c0.5,0.2,0.7,0.7,0.7,1.1v12.1c0,0.4-0.2,0.8-0.6,1C12.8,25.7,12.5,25.8,12.3,25.8 M6.8,9.5c0,0.2-0.1,0.2-0.1,0.3v12.5
	c0,0.2,0.2,0.4,0.3,0.5l5.1,2.1c0.2,0.1,0.4,0.1,0.6-0.1c0.2-0.1,0.2-0.2,0.2-0.5V12.5c0-0.2-0.2-0.4-0.3-0.5L6.8,9.5z"/>
<path class="st1" d="M12.3,25.8c-0.2,0-0.3,0-0.5-0.1l-5.1-2.1C6.3,23.3,6,22.9,6,22.4V9.9c0-0.7,0.6-1.2,1.2-1.2h9
	c0.7,0,1.2,0.6,1.2,1.2v4.6c0,0.2-0.2,0.3-0.3,0.3c-0.2,0-0.3-0.2-0.3-0.3V9.9c0-0.3-0.2-0.6-0.6-0.6H7.8l4.9,2
	c0.5,0.2,0.7,0.7,0.7,1.1v12.1c0,0.4-0.2,0.8-0.6,1C12.8,25.7,12.5,25.8,12.3,25.8z M6.8,9.5c0,0.2-0.1,0.2-0.1,0.3v12.5
	c0,0.2,0.2,0.4,0.3,0.5l5.1,2.1c0.2,0.1,0.4,0.1,0.6-0.1c0.2-0.1,0.2-0.2,0.2-0.5V12.5c0-0.2-0.2-0.4-0.3-0.5L6.8,9.5z"/>
<path class="st0" d="M16.2,23.1h-2.9c-0.2,0-0.3-0.2-0.3-0.3c0-0.2,0.2-0.3,0.3-0.3h2.8c0.3,0,0.7-0.3,0.7-0.7v-4.2
	c0-0.2,0.2-0.3,0.3-0.3s0.3,0.2,0.3,0.3v4.2C17.5,22.5,16.9,23.1,16.2,23.1"/>
<path class="st1" d="M16.2,23.1h-2.9c-0.2,0-0.3-0.2-0.3-0.3c0-0.2,0.2-0.3,0.3-0.3h2.8c0.3,0,0.7-0.3,0.7-0.7v-4.2
	c0-0.2,0.2-0.3,0.3-0.3s0.3,0.2,0.3,0.3v4.2C17.5,22.5,16.9,23.1,16.2,23.1z"/>
<path class="st0" d="M23.1,16.2h-7.1c-0.2,0-0.3-0.2-0.3-0.3s0.2-0.3,0.3-0.3h7.1c0.2,0,0.3,0.2,0.3,0.3
	C23.5,16.1,23.3,16.2,23.1,16.2"/>
<path class="st1" d="M23.1,16.2h-7.1c-0.2,0-0.3-0.2-0.3-0.3s0.2-0.3,0.3-0.3h7.1c0.2,0,0.3,0.2,0.3,0.3
	C23.5,16.1,23.3,16.2,23.1,16.2z"/>
<path class="st0" d="M20.3,19.5c-0.1,0-0.2,0-0.2-0.1c-0.2-0.2-0.2-0.3,0-0.5l2.9-3l-2.9-3c-0.2-0.2-0.1-0.3,0-0.5
	c0.2-0.2,0.3-0.1,0.5,0l3.3,3.5l-3.3,3.4C20.5,19.5,20.4,19.5,20.3,19.5"/>
<path class="st1" d="M20.3,19.5c-0.1,0-0.2,0-0.2-0.1c-0.2-0.2-0.2-0.3,0-0.5l2.9-3l-2.9-3c-0.2-0.2-0.1-0.3,0-0.5
	c0.2-0.2,0.3-0.1,0.5,0l3.3,3.5l-3.3,3.4C20.5,19.5,20.4,19.5,20.3,19.5z"/>
</svg>
