<?xml version="1.0" encoding="utf-8"?>
<!-- Generator: Adobe Illustrator 25.4.1, SVG Export Plug-In . SVG Version: 6.00 Build 0)  -->
<svg version="1.1" id="Layer_1" xmlns="http://www.w3.org/2000/svg" xmlns:xlink="http://www.w3.org/1999/xlink" x="0px" y="0px"
	 viewBox="0 0 257.6 198" style="enable-background:new 0 0 257.6 198;" xml:space="preserve">
<style type="text/css">
	.st0{fill:#868686;}
</style>
<g>
	<path class="st0" d="M136.4,33.1c-0.1,0-0.1,0-0.1,0S136.1,33.3,136.4,33.1z"/>
	<path class="st0" d="M245.1,26.6c0,0-0.1-14-19.2-17.9c-21.5-4.4-63.4,10-70.1,12.8s-13.5,6-16.9,9.3c-1.6,1.5,0.3,2.4,0,2.6
		c0.3,0-1.3-0.2,0,0v142.6c0,0,14.8,0,23.9-3.7c9.8-4.1,38.9-10.4,38.9-10.4s20.6-2.4,27.2-3.2c6.9-0.8,7.1-1.7,7.1-1.7
		s8.8-4.9,10-17.1C247.1,127.4,245.1,26.6,245.1,26.6z M226.3,148.8c-4.8,0-28,3.1-34.9,4.5c-5,1.1-27.2,8.4-41.2,10.4L152,34.4
		c4.7-2.6,15.7-7.6,37-11.5c30.3-5.5,35.5-4.1,35.5-4.1s6.7,0.5,8.8,7.5c0.3,1.1,0.5,2.4,0.5,3.5l0.8,110.3
		C234.6,140.1,234.7,147.1,226.3,148.8z"/>
</g>
<g>
	<path class="st0" d="M138.1,33.1c0.1,0,0.1,0,0.1,0S138.4,33.3,138.1,33.1z"/>
	<path class="st0" d="M28.5,139.8c1.2,12.2,10,17.1,10,17.1s0.2,0.9,7.1,1.7c6.6,0.8,27.2,3.2,27.2,3.2s29.1,6.3,38.9,10.4
		c9.1,3.7,23.9,3.7,23.9,3.7V33.4c1.3-0.2-0.3,0,0,0c-0.3-0.2,1.6-1,0-2.6c-3.4-3.3-10.2-6.5-16.9-9.3S70.1,4.3,48.6,8.7
		c-19.1,3.9-19.2,17.9-19.2,17.9S27.4,127.4,28.5,139.8z M39.9,140.1l0.8-110.3c0-1.1,0.2-2.4,0.5-3.5c2.1-7,8.8-7.5,8.8-7.5
		s5.2-1.4,35.5,4.1c21.3,3.9,32.3,8.9,37,11.5l1.8,129.3c-14-2-36.2-9.3-41.2-10.4c-6.9-1.4-30.1-4.5-34.9-4.5
		C39.8,147.1,39.9,140.1,39.9,140.1z"/>
</g>
</svg>
