<?xml version="1.0" encoding="utf-8"?>
<!-- Generator: Adobe Illustrator 25.4.1, SVG Export Plug-In . SVG Version: 6.00 Build 0)  -->
<svg version="1.1" id="Layer_1" xmlns="http://www.w3.org/2000/svg" xmlns:xlink="http://www.w3.org/1999/xlink" x="0px" y="0px"
	 viewBox="0 0 275.8 207.1" style="enable-background:new 0 0 275.8 207.1;" xml:space="preserve">
<style type="text/css">
	.st0{clip-path:url(#SVGID_00000016763587404695094000000002953492173182131617_);}
	.st1{clip-path:url(#SVGID_00000039818404151398338060000013876799108751185320_);}
	.st2{clip-path:url(#SVGID_00000110470860882674475560000003062210330106055566_);}
</style>
<g>
	<defs>
		
			<rect id="SVGID_1_" x="28.9" y="14.6" transform="matrix(7.974041e-02 -0.9968 0.9968 7.974041e-02 14.151 70.5671)" width="32.9" height="26.1"/>
	</defs>
	<clipPath id="SVGID_00000111166698259325996460000001475929441128288430_">
		<use xlink:href="#SVGID_1_"  style="overflow:visible;"/>
	</clipPath>
	<g style="clip-path:url(#SVGID_00000111166698259325996460000001475929441128288430_);">
		<defs>
			
				<rect id="SVGID_00000106840625197283541800000011053403803527402172_" x="28.9" y="14.6" transform="matrix(7.973189e-02 -0.9968 0.9968 7.973189e-02 14.1515 70.5674)" width="32.9" height="26.1"/>
		</defs>
		<clipPath id="SVGID_00000112604052693393366480000000321122951382231212_">
			<use xlink:href="#SVGID_00000106840625197283541800000011053403803527402172_"  style="overflow:visible;"/>
		</clipPath>
		
			<g transform="matrix(1 7.450581e-09 -7.450581e-09 1 3.814697e-06 0)" style="clip-path:url(#SVGID_00000112604052693393366480000000321122951382231212_);">
			
				<image style="overflow:visible;" width="161" height="203" xlink:href="F084F83DA9C5F612.jpg"  transform="matrix(0.1614 1.290868e-02 -1.290868e-02 0.1614 33.613 10.1996)">
			</image>
		</g>
	</g>
</g>
<g>
	<defs>
		
			<rect id="SVGID_00000170968431717329702810000007591723612983046834_" x="21.2" y="12.1" transform="matrix(0.9894 -0.1449 0.1449 0.9894 -3.7772 5.2256)" width="25.6" height="32.9"/>
	</defs>
	<clipPath id="SVGID_00000039848413808207158230000003689878417171095448_">
		<use xlink:href="#SVGID_00000170968431717329702810000007591723612983046834_"  style="overflow:visible;"/>
	</clipPath>
	<g style="clip-path:url(#SVGID_00000039848413808207158230000003689878417171095448_);">
		<defs>
			
				<rect id="SVGID_00000017498480760551615710000018069834985260725415_" x="21.2" y="12.1" transform="matrix(0.9894 -0.1449 0.1449 0.9894 -3.7773 5.2258)" width="25.6" height="32.9"/>
		</defs>
		<clipPath id="SVGID_00000074443408983145669280000017169680899213097101_">
			<use xlink:href="#SVGID_00000017498480760551615710000018069834985260725415_"  style="overflow:visible;"/>
		</clipPath>
		<g transform="matrix(1 0 0 1 0 0)" style="clip-path:url(#SVGID_00000074443408983145669280000017169680899213097101_);">
			
				<image style="overflow:visible;" width="158" height="203" xlink:href="F084F83DA9C5F615.jpg"  transform="matrix(0.1602 -2.346475e-02 2.346475e-02 0.1602 18.9408 14.1321)">
			</image>
		</g>
	</g>
</g>
<g>
	<defs>
		
			<rect id="SVGID_00000070106116731342764700000008464409474926847164_" x="9.9" y="14" transform="matrix(0.9417 -0.3365 0.3365 0.9417 -8.9099 9.4699)" width="25.9" height="32.9"/>
	</defs>
	<clipPath id="SVGID_00000029020958254621402030000014712158199879543690_">
		<use xlink:href="#SVGID_00000070106116731342764700000008464409474926847164_"  style="overflow:visible;"/>
	</clipPath>
	<g style="clip-path:url(#SVGID_00000029020958254621402030000014712158199879543690_);">
		<defs>
			
				<rect id="SVGID_00000183217483147436875110000006635006808818776511_" x="9.9" y="14" transform="matrix(0.9417 -0.3365 0.3365 0.9417 -8.91 9.4702)" width="25.9" height="32.9"/>
		</defs>
		<clipPath id="SVGID_00000114789180271835286560000015796938751055565708_">
			<use xlink:href="#SVGID_00000183217483147436875110000006635006808818776511_"  style="overflow:visible;"/>
		</clipPath>
		
			<g transform="matrix(1 0 0 1 4.768372e-07 0)" style="clip-path:url(#SVGID_00000114789180271835286560000015796938751055565708_);">
			
				<image style="overflow:visible;" width="160" height="203" xlink:href="F084F83DA9C5F617.jpg"  transform="matrix(0.1525 -5.447465e-02 5.447465e-02 0.1525 5.1441 19.3272)">
			</image>
		</g>
	</g>
</g>
</svg>
