<?xml version="1.0" encoding="utf-8"?>
<!-- Generator: Adobe Illustrator 25.4.1, SVG Export Plug-In . SVG Version: 6.00 Build 0)  -->
<svg version="1.1" id="Layer_1" xmlns="http://www.w3.org/2000/svg" xmlns:xlink="http://www.w3.org/1999/xlink" x="0px" y="0px"
	 viewBox="0 0 1127 198" style="enable-background:new 0 0 1127 198;" xml:space="preserve">
<style type="text/css">
	.st0{fill:#FFFFFF;}
	.st1{fill:#1E93D2;}
	.st2{fill:#868686;}
	.st3{fill:#EDEDED;}
	.st4{fill:#003856;}
	.st5{fill:#1794D2;}
	.st6{fill:#A8AAAC;}
	.st7{fill:#4C4F53;}
</style>
<polygon class="st0" points="136.3,33.1 130.7,37.7 121,37.7 117.5,33.6 91,28 67.4,22.3 28.1,14.5 20.4,20.5 17.8,30.8 17.8,91.2 
	17,149.2 42.8,157.4 83.1,168.1 103.4,174.6 150,174 167.9,165.5 235.3,152.6 238.9,140.6 236.3,18.1 219.8,14.5 171.2,23.3 "/>
<path class="st1" d="M126.4,45.4c-30.6,0-55.3,24.7-55.3,55.3S95.8,156,126.4,156s55.3-24.7,55.3-55.3
	C181.9,70.1,156.9,45.4,126.4,45.4 M190.7,98.9c0,38.2-28.5,59.5-64.3,95c-36.5-35.2-64.3-56.1-64.3-95c0-35.5,28.8-64.3,64.3-64.3
	C161.9,34.6,190.7,63.4,190.7,98.9"/>
<path class="st2" d="M149.2,36.2c0,0,9.5-7.8,39.8-13.3s35.5-4.1,35.5-4.1s6.7,0.5,8.8,7.5c0.3,1.1,0.5,2.4,0.5,3.5l0.8,110.3
	c0,0,0.1,7-8.3,8.7c-4.8,0-28,3.1-34.9,4.5c-7,1.5-24,5.4-28.3,7.5L150,174c0,0,3.7,1.9,12.8-1.8c9.8-4.1,38.9-10.4,38.9-10.4
	s20.6-2.4,27.2-3.2c6.9-0.8,7.1-1.7,7.1-1.7s8.8-4.9,10-17.1c1.1-12.4-0.9-113.2-0.9-113.2s-0.1-14-19.2-17.9
	c-21.5-4.4-63.4,10-70.1,12.8c-6.7,2.8-13.5,6-16.9,9.3c-3.2,3.1-2.6,2.3-2.6,2.3S142,33.3,149.2,36.2"/>
<path class="st2" d="M104.3,36.7c0,0-9.5-7.8-39.8-13.3s-35.5-4-35.5-4s-8,0.6-9.3,9.5l-0.8,111.8c0,0-0.1,7,8.3,8.7
	c4.8,0,27.9,3.1,34.9,4.5s24,5.4,28.3,7.5l13,13.2c0,0-3.7,1.9-12.8-1.8c-9.8-4.1-38.9-10.4-38.9-10.4s-20.6-2.4-27.2-3.2
	c-6.9-0.8-7.1-1.7-7.1-1.7s-8.8-4.9-10-17.1C6.6,128,8.6,27.1,8.6,27.1S8.7,13,27.9,9.2C49.4,4.8,91.3,19.2,98,22s13.5,6,16.9,9.3
	c3.2,3.1,2.6,2.3,2.6,2.3S111.5,33.9,104.3,36.7"/>
<path class="st3" d="M175.4,100.5c0-26.9-21.8-48.8-48.8-48.8c-11.9,0-22.7,4.2-31.2,11.3l68.6,68.6
	C171.1,123.1,175.4,112.3,175.4,100.5"/>
<path class="st3" d="M95.5,63c-10.7,9-17.6,22.3-17.6,37.4c0,26.9,21.8,48.8,48.8,48.8c15.1,0,28.5-6.8,37.4-17.6L95.5,63z"/>
<path class="st1" d="M122.9,143.7c-1.6-0.5-3.1-0.9-4.5-1.5c-1.7-0.7-3.3-1.4-4.9-2.3c-1.9-1-3.7-2.2-5.6-3.3
	c-2.8-1.9-5.6-4.2-7.9-6.7c-2.6-2.7-5-5.8-6.9-9.1c-1.6-2.7-2.8-5.6-3.9-8.5c-0.6-1.7-1-3.2-1.4-5.1l-0.1-0.3
	c-0.3-1.5-0.6-3.1-0.7-4.5c0-0.6-0.1-1-0.1-1.6c0-0.9-0.1-1.9-0.1-2.8c0-1.5,0.1-3.1,0.2-4.4c0.1-1.6,0.3-3.2,0.7-4.8
	c0.3-1.8,0.8-3.5,1.2-5.2c0.6-2.2,1.2-4.1,1.9-5.9c1-2.6,2-4.9,3.1-6.7c1.7-3.3,3.2-5.3,3.3-5.7L95.9,66c-0.2,0.2-1.6,2.3-3.3,5.7
	c-0.9,1.8-2,4.1-3.1,6.7c-0.7,1.8-1.4,3.7-1.9,5.9c-0.5,1.7-0.9,3.4-1.2,5.2c-0.2,1.6-0.5,3.1-0.7,4.8c-0.1,1.5-0.2,2.9-0.2,4.4
	c0,0.9,0,1.8,0.1,2.8c0,0.6,0.1,1,0.1,1.6c0.1,1.6,0.3,3.1,0.7,4.5v0.1c0.3,1.8,0.8,3.5,1.4,5.2c1,2.9,2.3,5.8,3.9,8.5
	c1.9,3.3,4.3,6.3,6.9,9.1c2.4,2.5,5,4.8,7.9,6.7c1.8,1.2,3.6,2.4,5.6,3.3c1.6,0.8,3.2,1.6,4.9,2.2c1.5,0.6,3.1,1.1,4.5,1.5l0,0
	c1.5,0.5,2.8,0.7,4.3,1c1.4,0.2,2.8,0.5,4.3,0.6c1,0.1,2.2,0.1,3.2,0.2l1.4-0.7c-1,0-2.2-0.1-3.2-0.2c-1.5-0.1-2.8-0.3-4.3-0.6
	C125.7,144.3,124.4,144,122.9,143.7L122.9,143.7z"/>
<path class="st1" d="M85.7,101.5c1.5,25.1,23.8,44.1,47.7,44.7c-0.8,0.1-1,0.2-1.2,0.2c-1.5,0.2-1.6,0.2-1.6,0.2c-0.1,0-0.2,0-0.2,0
	c-0.2,0-0.3,0-0.5,0s-0.2,0-0.3,0c-0.6,0-0.7,0-0.7,0c-0.2,0-0.3,0-0.3,0c-0.2,0-0.3,0-0.3,0c-0.2,0-0.3,0-0.3,0c-0.2,0-0.3,0-0.5,0
	s-0.3,0-0.5,0c-0.5,0-0.7,0-0.8,0s-0.1,0-0.2,0c-0.2,0-0.5,0-0.7,0c-0.3,0-0.6,0-0.8,0c-19.3-0.7-37.8-15.3-42.3-34
	c0-0.1,0-0.1,0-0.2c0-0.2-0.1-0.2-0.1-0.3c0-0.1,0-0.2-0.1-0.3c0-0.2-0.1-0.3-0.1-0.5s-0.1-0.3-0.1-0.6c0-0.2-0.1-0.5-0.1-0.6
	c0-0.3-0.1-0.5-0.1-0.7c0-0.3-0.1-0.5-0.1-0.7c-0.1-0.6-0.1-1-0.2-1.5c0-0.3-0.1-0.7-0.1-0.9c0-0.5-0.1-0.7-0.1-0.9
	c0-0.3,0-0.6-0.1-0.8c0-0.5,0-0.7-0.1-1c0-0.5,0-0.8,0-1c0-0.3,0-0.7,0-0.9v-0.5c0-0.1,0-0.2,0-0.3c0-0.1,0-0.3,0-0.5s0-0.2,0-0.2
	c0-0.1,0-0.3,0-0.5c0-0.1,0-0.1,0-0.2c0-0.2,0-0.3,0-0.6c0-0.3,0-0.7,0-0.9c0-0.2,0-0.6,0-0.8c0-0.3,0-0.6,0-0.8c0-0.1,0-0.1,0-0.2
	c0-0.2,0-0.3,0-0.6c0-0.1,0-0.2,0-0.3c0-0.1,0-0.3,0-0.5s0-0.2,0-0.2c0-0.2,0-0.3,0.1-0.6c0-0.1,0-0.1,0-0.2c0-0.2,0-0.5,0.1-0.6
	c0.1-0.8,0.2-1.2,0.3-1.8c0-0.1,0-0.1,0-0.2c0-0.2,0.1-0.5,0.1-0.6s0-0.2,0.1-0.3c0-0.2,0.1-0.3,0.1-0.6c0-0.1,0-0.2,0.1-0.3
	c0-0.2,0.1-0.3,0.1-0.6c0-0.1,0-0.2,0.1-0.3c0-0.2,0.1-0.3,0.1-0.6c0-0.1,0-0.2,0.1-0.3c0-0.2,0.1-0.5,0.2-0.6c0-0.1,0-0.1,0.1-0.2
	c0.1-0.3,0.2-0.6,0.2-0.9c0.1-0.3,0.2-0.6,0.2-0.9c0-0.1,0.1-0.2,0.1-0.2c0.1-0.2,0.1-0.5,0.2-0.6c0-0.1,0.1-0.2,0.1-0.3
	c0.1-0.2,0.1-0.3,0.2-0.6c0-0.1,0.1-0.2,0.1-0.3c0.1-0.2,0.1-0.3,0.2-0.6c0-0.1,0.1-0.2,0.1-0.3c0.1-0.2,0.1-0.3,0.2-0.6
	c0-0.1,0.1-0.2,0.1-0.3c0.1-0.2,0.2-0.3,0.2-0.6c0-0.1,0.1-0.2,0.1-0.2c0.1-0.3,0.2-0.6,0.5-0.9c0.1-0.3,0.3-0.6,0.5-0.9
	c0-0.1,0.1-0.2,0.1-0.3c0.1-0.2,0.2-0.3,0.3-0.6c0.1-0.1,0.1-0.2,0.2-0.3c0.1-0.2,0.2-0.3,0.3-0.6c0.1-0.1,0.1-0.2,0.2-0.3
	c0.1-0.1,0.2-0.3,0.3-0.6c0.1-0.1,0.1-0.2,0.2-0.3c0.1-0.2,0.2-0.3,0.3-0.6c0.1-0.1,0.1-0.2,0.2-0.3c0.1-0.2,0.2-0.3,0.3-0.6
	c0.1-0.1,0.1-0.2,0.2-0.3c0.2-0.2,0.5-0.6,0.6-0.9c3.3-4.3,6.6-6.9,6.7-7C95.5,66.9,84.6,82.5,85.7,101.5"/>
<path class="st2" d="M112.9,51c-17.1,9.2-4,26.1,11.2,45.6c22.7,29.3,35.2,44.9,19.2,51.1c-2.6,1-5.3,1.5-6.7,1.8
	c15.2-5,5.7-17.7-10.8-38.4c-21.3-26.6-35.3-49.4-19.4-57.8C108.2,52.3,110.4,51.5,112.9,51"/>
<path class="st2" d="M113.2,50.9c-17.9,8.2-1,21.5,18.6,37.2c28.7,22.8,42.3,35.5,31.2,47.3c-2.6,2.7-4.3,3.7-5.3,4.5
	c11.3-11.6-1.1-22.1-30.3-45.9c-19.7-16.1-35.7-32.7-20.6-40.7C108.6,52.4,110.4,51.5,113.2,50.9"/>
<path class="st2" d="M135.5,49.5c-20.5-2.3-7.9,13.7-3.2,19.7c7.5,9.4,15.8,18,23.1,27.7c2.7,3.6,6.5,9.1,9.2,14.7
	c6,13,2.7,19.2-1.7,23.9c-1.5,1.6-1.8,1.8-1.8,1.8c-1.9,1.7-4.3,3.3-4.3,3.3c10.8-10.1,6.7-23.9-18-53.6
	c-15.8-18.9-30.3-38-9.4-38.1C131.4,48.8,133.7,49.3,135.5,49.5"/>
<g id="catalogusnetwerk">
	<g id="catalogus_3_">
		<g id="catalogus">
			<path class="st4" d="M299.5,119.6c-4.6,0-11.6-0.6-16.5-6.4c-4.2-4.9-4.8-11.6-4.8-19.8c0-7.8,0.4-16.2,6-22
				c4.2-4.4,9.9-5.6,16.2-5.6h28.9v13.6h-19.7c-6.8,0-9.1,3-10.3,6.5c-0.7,2.1-0.9,4.4-0.9,7.1c0,6.2,1.1,8.4,1.6,9.3
				c2.4,4,7.6,3.7,10.7,3.7h19.7v13.6H299.5z"/>
			<path class="st4" d="M373.5,65.8c6.6,0,11,2.3,13.3,4.7c4.5,4.4,5.1,10.8,5.1,15.1v22.5c0,2.8-0.2,6.1-2.6,8.6
				c-2.5,2.6-6.1,2.8-9.1,2.8h-31.7c-3.4,0-7-0.2-9.9-2.8c-4.2-3.8-4.4-10.9-4.4-15.1c0-4.7,0.4-10.4,4.7-13.6
				c2.9-2.2,6.4-2.3,9.5-2.3H372v-0.8c0-0.9-0.1-2.3-1-3.6c-1.5-2-4.1-2.1-6.1-2.1h-27V65.8H373.5z M357.9,98.5
				c-0.6,0-2,0.1-2.9,0.9c-0.7,0.7-0.8,1.6-0.8,2.5c0,0.8,0.1,1.6,0.8,2.3c0.7,0.6,1.8,0.9,2.7,0.9H368c1,0,2.3-0.2,2.9-0.7
				c0.9-0.7,1-1.7,1-2.6v-3.4H357.9z"/>
			<path class="st4" d="M425.8,119.6c-4,0-11.2,0-16.7-3.7c-4.5-3-6.8-8.3-6.8-13.2V79.6h-7.6V65.8h7.6V48.5h19.9v17.3h15.3v13.8
				h-15.3v12.3c0,4,0.5,8.1,3.5,10.8c2.7,2.4,6.2,2.5,8.7,2.5h2.9v14.4H425.8z"/>
			<path class="st4" d="M478.6,65.8c6.6,0,11,2.3,13.3,4.7c4.5,4.4,5.1,10.8,5.1,15.1v22.5c0,2.8-0.2,6.1-2.6,8.6
				c-2.5,2.6-6.1,2.8-9.1,2.8h-31.7c-3.4,0-7-0.2-9.9-2.8c-4.2-3.8-4.4-10.9-4.4-15.1c0-4.7,0.4-10.4,4.7-13.6
				c2.9-2.2,6.4-2.3,9.5-2.3H477v-0.8c0-0.9-0.1-2.3-1-3.6c-1.5-2-4.1-2.1-6.1-2.1h-27V65.8H478.6z M462.9,98.5
				c-0.6,0-2,0.1-2.9,0.9c-0.7,0.7-0.8,1.6-0.8,2.5c0,0.8,0.1,1.6,0.8,2.3c0.7,0.6,1.8,0.9,2.7,0.9h10.4c1,0,2.3-0.2,2.9-0.7
				c0.9-0.7,1-1.7,1-2.6v-3.4H462.9z"/>
			<path class="st4" d="M503,48.5h19.9v71.1H503V48.5z"/>
			<path class="st4" d="M582.9,70.7c6.7,6,7.1,16.7,7.1,22c0,5.4-0.4,16-7.1,22c-5.9,5.2-15.4,5.5-24,5.5c-8.5,0-18.1-0.3-24-5.5
				c-6.7-6-7.1-16.7-7.1-22c0-5.4,0.4-16,7.1-22c5.9-5.2,15.4-5.5,24-5.5C567.4,65.2,577,65.5,582.9,70.7z M550.1,102.2
				c0.4,0.6,2.7,3.7,8.8,3.7c5.4,0,7.8-2.3,8.7-3.7c1.6-2.2,2-5.6,2-9.4c0-5.7-0.9-8.2-1.9-9.6c-1-1.3-3.4-3.5-8.8-3.5
				c-5.5,0-7.8,2.1-8.8,3.5c-0.7,1-1.9,3.4-1.9,9.6C548.1,98.6,549.2,101,550.1,102.2z"/>
			<path class="st4" d="M597.4,124.9h24c2.1,0,5.3,0.1,7.3-1.4c1.1-0.9,2-2.4,2.3-3.9h-17.2c-5.7,0-11.9-0.4-16-6.8
				c-2.9-4.6-4.2-11-4.2-20.3c0-10.5,1.5-15.6,5.5-20.2c4.1-4.8,8.6-6.5,17.1-6.5h22.1c3.1,0,6.8,0.2,9.4,2.4
				c2.7,2.3,3.1,5.8,3.1,8.1v37.3c0,7.1-0.8,12.9-4.3,17.2c-4.1,5.2-10.9,7.1-19.1,7.1h-30.2C597.4,137.9,597.4,124.9,597.4,124.9z
				 M631,84.5c0-1.4-0.2-2.5-1.5-3.4c-1-0.7-2.1-0.8-3.1-0.8h-2.2c-2.8,0-5.9,0.2-8,3c-0.9,1.1-2.1,3.5-2.1,10.1
				c0,4.8,0.8,7.6,2.2,9.2c2.5,2.9,6.3,2.7,9.1,2.7h5.7C631,105.2,631,84.5,631,84.5z"/>
			<path class="st4" d="M676.9,65.8v26.8c0,5.1,0.8,7.6,1.9,9.2c2.2,3.2,6.1,3.4,8.4,3.4h3.7c1.6,0,2.7-0.4,3.5-1.1c1-1,1-2.2,1-3.2
				v-35h19.9v42.9c0,3-0.4,6.1-3.4,8.5c-2.7,2.2-6.5,2.4-8.7,2.4h-24.4c-7.6,0-12.3-2.2-15-4.6c-5.6-4.6-6.8-11.8-6.8-19.9V65.8
				H676.9z"/>
			<path class="st4" d="M720.8,105.2h29.3c0.3,0,0.9-0.2,1.2-0.4c0.3-0.2,0.5-0.5,0.5-1c0-0.7-0.5-1-0.9-1.2
				c-0.7-0.4-1.8-0.7-6.1-2.1l-11.6-3.8c-4.9-1.6-9-3.8-11.1-7.1c-1.5-2.5-2-6.4-2-9c0-3.4,0.6-6.8,2.5-9.6
				c2.8-4.3,6.9-5.1,12.5-5.1h36v13.8h-29.3c-0.7,0-1.5-0.1-2.3,0.1c-0.5,0.1-0.9,0.2-0.9,0.9c0,0.8,0.5,1,1.1,1.2
				c2.4,0.8,1.7,0.7,4.1,1.5l13.6,4.6c5.7,1.9,9.9,3.5,12.4,7.3c2.5,3.7,2.7,8,2.7,10.4c0,4-0.8,8.5-4.5,11.5
				c-2.8,2.2-6.1,2.5-8.8,2.5h-38.5L720.8,105.2L720.8,105.2z"/>
		</g>
		<g id="catalogus_1_">
			<g>
				<path class="st4" d="M298.4,118.6c-4.6,0-11.6-0.6-16.5-6.4c-4.2-4.9-4.8-11.6-4.8-19.8c0-7.8,0.4-16.2,6-22
					c4.2-4.4,9.9-5.6,16.2-5.6h28.9v13.6h-19.7c-6.8,0-9.1,3-10.3,6.5c-0.7,2.1-0.9,4.4-0.9,7.1c0,6.2,1.1,8.4,1.6,9.3
					c2.4,4,7.6,3.7,10.7,3.7h19.7v13.6H298.4z"/>
				<path class="st4" d="M329.8,118.8h-31.3c-4.8,0-11.8-0.7-16.7-6.5c-4-4.7-4.8-11.1-4.8-20c0-8.1,0.5-16.4,6.1-22.2
					c3.7-3.9,8.9-5.7,16.4-5.7h29.2v14.1h-20c-7.1,0-9.1,3.4-10,6.3c-0.6,1.9-0.9,4-0.9,7c0,6.4,1.2,8.5,1.6,9.2
					c1.9,3.1,5.5,3.5,9.1,3.5l1.3,0h20L329.8,118.8L329.8,118.8z M299.4,65c-7.5,0-12.4,1.7-16.1,5.5c-5.5,5.7-5.9,13.9-5.9,21.9
					c0,8.7,0.8,15,4.7,19.6c4.8,5.7,11.6,6.3,16.2,6.3h30.8v-13.1l-20.8,0c-2.4,0-7.2,0-9.6-3.8c-0.4-0.8-1.7-3-1.7-9.5
					c0-3.1,0.3-5.2,0.9-7.2c1-3.1,3.1-6.7,10.5-6.7h19.4V65H299.4z"/>
			</g>
			<g>
				<path class="st4" d="M372.5,64.7c6.6,0,11,2.3,13.3,4.7c4.5,4.4,5.1,10.8,5.1,15.1v22.5c0,2.8-0.2,6.1-2.6,8.6
					c-2.5,2.6-6.1,2.8-9.1,2.8h-31.7c-3.4,0-7-0.2-9.9-2.8c-4.2-3.8-4.4-10.9-4.4-15.1c0-4.7,0.4-10.4,4.7-13.6
					c2.9-2.2,6.4-2.3,9.5-2.3h23.6v-0.8c0-0.9-0.1-2.3-1-3.6c-1.5-2-4.1-2.1-6.1-2.1h-27V64.7H372.5z M356.8,97.4
					c-0.6,0-2,0.1-2.9,0.9c-0.7,0.7-0.8,1.6-0.8,2.5c0,0.8,0.1,1.6,0.8,2.3c0.7,0.6,1.8,0.9,2.7,0.9H367c1,0,2.3-0.2,2.9-0.7
					c0.9-0.7,1-1.7,1-2.6v-3.4H356.8z"/>
				<path class="st4" d="M379.1,118.8h-31.7c-3.5,0-7.1-0.2-10-2.9c-4.5-4-4.5-11.9-4.5-15.3c0-5.3,0.6-10.6,4.8-13.8
					c2.9-2.2,6.2-2.4,9.7-2.4h23.3v-0.6c0-0.9-0.1-2.2-1-3.4c-1.4-1.9-3.7-2-5.9-2h-27.3V64.5h35.9c7.9,0,12.1,3.3,13.5,4.8
					c3.5,3.4,5.2,8.4,5.2,15.3v22.5c0,2.9-0.2,6.2-2.7,8.8C385.8,118.6,382.2,118.8,379.1,118.8z M347.4,84.9
					c-3.4,0-6.6,0.2-9.4,2.3c-4,3.1-4.6,8.2-4.6,13.4c0,3.3,0,11.1,4.3,14.9c2.8,2.6,6.3,2.8,9.7,2.8h31.7c3,0,6.5-0.2,8.9-2.8
					c2.4-2.5,2.6-5.7,2.6-8.4V84.5c0-6.8-1.6-11.7-5-14.9c-1.4-1.4-5.4-4.6-13.1-4.6h-35.4v12.9h26.8c2.2,0,4.8,0.2,6.3,2.2
					c1.1,1.4,1.1,3.2,1.1,3.7v1.1L347.4,84.9L347.4,84.9z M367,104.4h-10.4c-1.1,0-2.2-0.4-2.9-1c-0.8-0.8-0.9-1.7-0.9-2.5
					c0-1,0.1-1.9,0.9-2.7c1-0.9,2.5-1,3.1-1h14.4v3.6c0,1-0.1,2.1-1.1,2.8C369.4,104.2,368,104.4,367,104.4z M356.8,97.7
					c-0.5,0-1.9,0.1-2.8,0.8c-0.6,0.6-0.7,1.4-0.7,2.3c0,0.8,0.1,1.5,0.7,2.1c0.6,0.5,1.6,0.8,2.5,0.8H367c1,0,2.2-0.2,2.8-0.6
					c0.8-0.6,0.9-1.4,0.9-2.4v-3.1H356.8z"/>
			</g>
			<g>
				<path class="st4" d="M424.8,118.6c-4,0-11.2,0-16.7-3.7c-4.5-3-6.8-8.3-6.8-13.2V78.5h-7.6V64.7h7.6V47.5h19.9v17.3h15.3v13.8
					h-15.3v12.3c0,4,0.5,8.1,3.5,10.8c2.7,2.4,6.2,2.5,8.7,2.5h2.9v14.4H424.8z"/>
				<path class="st4" d="M436.6,118.8h-11.8c-3.9,0-11.3,0-16.8-3.7c-4.3-2.9-6.9-8.1-6.9-13.4V78.8h-7.6V64.5h7.6V47.2h20.4v17.3
					h15.3v14.3h-15.3v12c0,3.5,0.4,7.9,3.4,10.6c2.6,2.3,5.8,2.5,8.6,2.5h3.2L436.6,118.8L436.6,118.8z M394,78.3h7.6v23.4
					c0,5.2,2.6,10.2,6.7,13c5.4,3.6,12.6,3.6,16.5,3.6h11.3v-13.9h-2.7c-2.9,0-6.2-0.2-8.9-2.6c-3.1-2.8-3.5-7.3-3.5-11V78.3h15.3
					V65h-15.3V47.7h-19.4V65H394L394,78.3L394,78.3z"/>
			</g>
			<g>
				<path class="st4" d="M477.5,64.7c6.6,0,11,2.3,13.3,4.7c4.5,4.4,5.1,10.8,5.1,15.1v22.5c0,2.8-0.2,6.1-2.6,8.6
					c-2.5,2.6-6.1,2.8-9.1,2.8h-31.7c-3.4,0-7-0.2-9.9-2.8c-4.2-3.8-4.4-10.9-4.4-15.1c0-4.7,0.4-10.4,4.7-13.6
					c2.9-2.2,6.4-2.3,9.5-2.3H476v-0.8c0-0.9-0.1-2.3-1-3.6c-1.5-2-4.1-2.1-6.1-2.1h-27V64.7H477.5z M461.8,97.4
					c-0.6,0-2,0.1-2.9,0.9c-0.7,0.7-0.8,1.6-0.8,2.5c0,0.8,0.1,1.6,0.8,2.3c0.7,0.6,1.8,0.9,2.7,0.9H472c1,0,2.3-0.2,2.9-0.7
					c0.9-0.7,1-1.7,1-2.6v-3.4H461.8z"/>
				<path class="st4" d="M484.1,118.8h-31.7c-3.5,0-7.1-0.2-10-2.9c-4.5-4-4.5-11.9-4.5-15.3c0-5.3,0.6-10.6,4.8-13.8
					c2.9-2.2,6.2-2.4,9.7-2.4h23.3v-0.6c0-0.9-0.1-2.2-1-3.4c-1.4-1.9-3.7-2-5.9-2h-27.3V64.5h35.9c7.9,0,12.1,3.3,13.5,4.8
					c3.5,3.4,5.2,8.4,5.2,15.3v22.5c0,2.9-0.2,6.2-2.7,8.8C490.8,118.6,487.2,118.8,484.1,118.8z M452.4,84.9
					c-3.4,0-6.6,0.2-9.4,2.3c-4,3.1-4.6,8.2-4.6,13.4c0,3.3,0,11.1,4.3,14.9c2.8,2.6,6.3,2.8,9.7,2.8h31.7c3,0,6.5-0.2,8.9-2.8
					c2.4-2.5,2.6-5.7,2.6-8.4V84.5c0-6.8-1.6-11.7-5-14.9c-1.4-1.4-5.4-4.6-13.1-4.6h-35.4v12.9h26.8c2.2,0,4.8,0.2,6.3,2.2
					c1.1,1.4,1.1,3.2,1.1,3.7v1.1L452.4,84.9L452.4,84.9z M472,104.4h-10.4c-1.1,0-2.2-0.4-2.9-1c-0.8-0.8-0.9-1.7-0.9-2.5
					c0-1,0.1-1.9,0.9-2.7c1-0.9,2.5-1,3.1-1h14.4v3.6c0,1-0.1,2.1-1.1,2.8C474.4,104.2,473.1,104.4,472,104.4z M461.8,97.7
					c-0.5,0-1.9,0.1-2.8,0.8c-0.6,0.6-0.7,1.4-0.7,2.3c0,0.8,0.1,1.5,0.7,2.1c0.6,0.5,1.6,0.8,2.6,0.8H472c1,0,2.2-0.2,2.8-0.6
					c0.8-0.6,0.9-1.4,0.9-2.4v-3.1H461.8z"/>
			</g>
			<g>
				<path class="st4" d="M502,47.5h19.9v71.1H502V47.5z"/>
				<path class="st4" d="M522.1,118.8h-20.4V47.2h20.4V118.8z M502.2,118.3h19.4V47.7h-19.4V118.3z"/>
			</g>
			<g>
				<path class="st4" d="M581.8,69.6c6.7,6,7.1,16.7,7.1,22s-0.4,16-7.1,22c-5.9,5.2-15.4,5.5-24,5.5s-18.1-0.3-24-5.5
					c-6.7-6-7.1-16.7-7.1-22s0.4-16,7.1-22c5.9-5.2,15.4-5.5,24-5.5S575.9,64.4,581.8,69.6z M549,101.1c0.4,0.6,2.7,3.7,8.8,3.7
					c5.4,0,7.8-2.3,8.7-3.7c1.6-2.2,2-5.6,2-9.4c0-5.7-0.9-8.2-1.9-9.6c-1-1.3-3.4-3.5-8.8-3.5c-5.5,0-7.8,2.1-8.8,3.5
					c-0.7,1-1.9,3.4-1.9,9.6C547.1,97.5,548.2,100,549,101.1z"/>
				<path class="st4" d="M557.8,119.4c-9,0-18.3-0.4-24.1-5.6c-7.2-6.4-7.2-18.3-7.2-22.2c0-3.9,0-15.8,7.2-22.2
					c5.8-5.1,15.1-5.5,24.1-5.5c9,0,18.3,0.4,24.1,5.5c7.2,6.4,7.2,18.3,7.2,22.2c0,3.9,0,15.8-7.2,22.2
					C576.1,119,566.8,119.4,557.8,119.4z M557.8,64.4c-8.9,0-18.1,0.4-23.8,5.4c-7,6.3-7,18-7,21.8c0,3.8,0,15.6,7,21.8
					c5.7,5,14.9,5.4,23.8,5.4c8.9,0,18.1-0.4,23.8-5.4c7-6.3,7-18,7-21.8c0-3.9,0-15.6-7-21.8C575.9,64.8,566.7,64.4,557.8,64.4z
					 M557.8,105c-6.2,0-8.6-3.1-9.1-3.8c-1.3-1.8-2-5-2-9.6c0-4.7,0.6-7.9,2-9.8c1.8-2.3,4.9-3.6,9.1-3.6c4.1,0,7.3,1.2,9,3.6
					c1.4,1.9,2,5,2,9.8c0,3.1-0.2,7.1-2.1,9.6C566,102.4,563.6,105,557.8,105z M557.8,78.8c-4,0-6.9,1.1-8.6,3.4
					c-1.2,1.8-1.9,5-1.9,9.5c0,4.4,0.6,7.6,1.9,9.3c0.4,0.6,2.7,3.5,8.6,3.5c5.5,0,7.8-2.5,8.5-3.5c1.4-1.9,2-4.8,2-9.3
					c0-4.7-0.6-7.7-1.9-9.5C564.8,80,561.8,78.8,557.8,78.8z"/>
			</g>
			<g>
				<path class="st4" d="M596.3,123.8h24c2.1,0,5.3,0.1,7.3-1.4c1.1-0.9,2-2.4,2.3-3.9h-17.2c-5.7,0-11.9-0.4-16-6.8
					c-2.9-4.6-4.2-11-4.2-20.3c0-10.5,1.5-15.6,5.5-20.2c4.1-4.8,8.6-6.5,17.1-6.5h22.1c3.1,0,6.8,0.2,9.4,2.4
					c2.7,2.3,3.1,5.8,3.1,8.1v37.3c0,7.1-0.8,12.9-4.3,17.2c-4.1,5.2-10.9,7.1-19.1,7.1h-30.2L596.3,123.8L596.3,123.8z M629.9,83.4
					c0-1.4-0.2-2.5-1.5-3.5c-1-0.7-2.1-0.8-3.1-0.8H623c-2.8,0-5.9,0.2-8,3c-0.9,1.1-2.1,3.5-2.1,10.1c0,4.8,0.8,7.6,2.2,9.2
					c2.5,2.9,6.3,2.7,9.1,2.7h5.7C629.9,104.1,629.9,83.4,629.9,83.4z"/>
				<path class="st4" d="M626.5,137.1h-30.4v-13.5h25c2.2,0,4.7-0.1,6.3-1.4c1-0.8,1.8-2.1,2.2-3.4h-16.8c-5.9,0-12.1-0.5-16.3-6.9
					c-2.9-4.5-4.2-10.8-4.2-20.5c0-10.3,1.4-15.7,5.6-20.4c4.1-4.8,8.8-6.6,17.3-6.6h22.1c3.5,0,7,0.3,9.6,2.5
					c2.2,1.8,3.2,4.6,3.2,8.3v37.3c0,6.2-0.5,12.6-4.3,17.3C642,134.8,635.7,137.1,626.5,137.1z M596.6,136.6h29.9
					c9,0,15.2-2.3,18.9-7c3.7-4.6,4.2-10.9,4.2-17V75.3c0-3.6-1-6.2-3.1-7.9c-2.5-2.1-5.9-2.4-9.3-2.4h-22.1
					c-8.4,0-12.8,1.7-16.9,6.4c-4,4.6-5.4,9.9-5.4,20c0,9.5,1.3,15.7,4.1,20.2c4,6.2,10,6.7,15.8,6.7h17.5l-0.1,0.3
					c-0.3,1.5-1.3,3.1-2.4,4c-1.8,1.4-4.4,1.5-6.7,1.5h-24.5L596.6,136.6L596.6,136.6z M623.2,104.4c-2.8,0-6-0.2-8.2-2.8
					c-1.5-1.8-2.3-4.8-2.3-9.4c0-5.1,0.7-8.4,2.2-10.2c2.2-2.8,5.3-3,8.2-3h2.2c1,0,2.2,0.1,3.3,0.9c1.4,0.9,1.6,2.1,1.6,3.7v21
					L623.2,104.4z M623,79.4c-2.8,0-5.8,0.2-7.8,2.8c-1.4,1.7-2.1,5-2.1,9.9c0,4.4,0.7,7.4,2.2,9.1c2.1,2.4,5,2.6,7.8,2.6h6.5V83.4
					c0-1.4-0.2-2.4-1.4-3.2c-1-0.7-2-0.8-3-0.8H623z"/>
			</g>
			<g>
				<path class="st4" d="M675.9,64.7v26.8c0,5.1,0.8,7.6,1.9,9.2c2.2,3.2,6.1,3.4,8.4,3.4h3.7c1.6,0,2.7-0.4,3.5-1.1
					c1-1,1-2.2,1-3.3v-35h19.9v42.9c0,3-0.4,6.1-3.4,8.5c-2.7,2.2-6.5,2.4-8.7,2.4h-24.4c-7.6,0-12.3-2.2-15-4.6
					c-5.6-4.6-6.8-11.8-6.8-19.9V64.7L675.9,64.7L675.9,64.7z"/>
				<path class="st4" d="M702.2,118.8h-24.4c-8.1,0-12.7-2.5-15.2-4.6c-6.1-5-6.9-13-6.9-20.1V64.5h20.4v27.1c0,4.3,0.6,7.2,1.9,9.1
					c2,2.9,5.5,3.2,8.2,3.2h3.7c1.5,0,2.6-0.3,3.3-1c0.9-0.9,0.9-2.1,0.9-3.1V64.5h20.4v43.1c0,3.1-0.4,6.2-3.4,8.7
					C708,118.8,703.6,118.8,702.2,118.8z M656.2,65v29.1c0,7,0.8,14.9,6.7,19.7c2.4,2.1,7,4.5,14.9,4.5h24.4c2.4,0,5.9-0.2,8.6-2.4
					c2.7-2.2,3.3-4.9,3.3-8.3V65h-19.4v34.8c0,1,0,2.3-1.1,3.4c-0.8,0.8-2,1.2-3.6,1.2h-3.7c-2.9,0-6.5-0.4-8.6-3.5
					c-1.4-2-2-4.9-2-9.4V65H656.2z"/>
			</g>
			<g>
				<path class="st4" d="M719.7,104.1h29.3c0.3,0,0.9-0.2,1.2-0.4c0.3-0.2,0.5-0.5,0.5-1c0-0.7-0.5-1-0.9-1.2
					c-0.7-0.4-1.8-0.7-6.1-2.1l-11.6-3.8c-4.9-1.6-9-3.8-11.1-7.1c-1.5-2.5-2-6.4-2-9c0-3.4,0.6-6.8,2.5-9.6
					c2.8-4.3,6.9-5.1,12.5-5.1h36v13.8h-29.3c-0.7,0-1.5-0.1-2.3,0.1c-0.5,0.1-0.9,0.2-0.9,0.9c0,0.8,0.5,1,1.1,1.2
					c2.4,0.8,1.7,0.7,4.1,1.5l13.6,4.6c5.7,1.9,9.9,3.5,12.4,7.3c2.5,3.7,2.7,8,2.7,10.4c0,4-0.8,8.5-4.5,11.5
					c-2.8,2.2-6.1,2.5-8.8,2.5h-38.5L719.7,104.1L719.7,104.1z"/>
				<path class="st4" d="M758.2,118.8h-38.8v-15h29.6c0.2,0,0.8-0.2,1.1-0.4c0.3-0.2,0.4-0.4,0.4-0.8c0-0.5-0.4-0.8-0.8-1
					c-0.5-0.3-1.3-0.6-3.4-1.2c-0.7-0.2-1.6-0.5-2.7-0.9l-11.6-3.8c-5.8-1.9-9.4-4.2-11.2-7.2c-1.5-2.5-2.1-6.4-2.1-9.2
					c0-4,0.9-7.3,2.6-9.8c2.9-4.3,7-5.2,12.7-5.2h36.2v14.3h-29.5c-0.3,0-0.7,0-1.1,0c-0.5,0-0.8,0-1.2,0.1
					c-0.5,0.1-0.7,0.2-0.7,0.7c0,0.6,0.3,0.8,0.9,1c1.3,0.4,1.7,0.6,2.1,0.8c0.4,0.2,0.8,0.3,1.9,0.7l13.6,4.6
					c5.7,1.9,9.9,3.6,12.5,7.4c2.8,4,2.8,8.9,2.8,10.5c0,5.4-1.5,9.2-4.6,11.7C764.3,118.5,761,118.8,758.2,118.8z M720,118.3h38.2
					c2.7,0,5.9-0.3,8.7-2.5c2.9-2.4,4.4-6.1,4.4-11.3c0-1.6,0-6.3-2.7-10.2c-2.5-3.7-6.7-5.3-12.3-7.2l-13.6-4.6
					c-1.1-0.4-1.5-0.6-2-0.7c-0.4-0.2-0.8-0.4-2.1-0.8c-0.6-0.2-1.3-0.4-1.3-1.5c0-0.9,0.7-1.1,1.1-1.2c0.5-0.1,1-0.1,1.3-0.1
					c0.2,0,0.4,0,0.6,0c0.2,0,0.4,0,0.5,0h29V65h-35.7c-5.5,0-9.5,0.8-12.3,5c-1.7,2.4-2.5,5.6-2.5,9.5c0,2.7,0.5,6.4,2,8.9
					c1.7,2.9,5.2,5.1,10.9,7l11.6,3.8c1.1,0.4,2,0.6,2.7,0.9c2.2,0.7,2.9,1,3.5,1.3c0.3,0.2,1.1,0.5,1.1,1.4c0,0.6-0.2,1-0.6,1.2
					c-0.3,0.2-1,0.4-1.4,0.4H720L720,118.3L720,118.3z"/>
			</g>
		</g>
		<g id="catalogus_2_">
			<path class="st5" d="M298.4,118.6c-4.6,0-11.6-0.6-16.5-6.4c-4.2-4.9-4.8-11.6-4.8-19.8c0-7.8,0.4-16.2,6-22
				c4.2-4.4,9.9-5.6,16.2-5.6h28.9v13.6h-19.7c-6.8,0-9.1,3-10.3,6.5c-0.7,2.1-0.9,4.4-0.9,7.1c0,6.2,1.1,8.4,1.6,9.3
				c2.4,4,7.6,3.7,10.7,3.7h19.7v13.6H298.4z"/>
			<path class="st5" d="M372.5,64.7c6.6,0,11,2.3,13.3,4.7c4.5,4.4,5.1,10.8,5.1,15.1v22.5c0,2.8-0.2,6.1-2.6,8.6
				c-2.5,2.6-6.1,2.8-9.1,2.8h-31.7c-3.4,0-7-0.2-9.9-2.8c-4.2-3.8-4.4-10.9-4.4-15.1c0-4.7,0.4-10.4,4.7-13.6
				c2.9-2.2,6.4-2.3,9.5-2.3h23.6v-0.8c0-0.9-0.1-2.3-1-3.6c-1.5-2-4.1-2.1-6.1-2.1h-27V64.7H372.5z M356.8,97.4
				c-0.6,0-2,0.1-2.9,0.9c-0.7,0.7-0.8,1.6-0.8,2.5c0,0.8,0.1,1.6,0.8,2.3c0.7,0.6,1.8,0.9,2.7,0.9H367c1,0,2.3-0.2,2.9-0.7
				c0.9-0.7,1-1.7,1-2.6v-3.4H356.8z"/>
			<path class="st5" d="M424.8,118.6c-4,0-11.2,0-16.7-3.7c-4.5-3-6.8-8.3-6.8-13.2V78.5h-7.6V64.7h7.6V47.5h19.9v17.3h15.3v13.8
				h-15.3v12.3c0,4,0.5,8.1,3.5,10.8c2.7,2.4,6.2,2.5,8.7,2.5h2.9v14.4H424.8z"/>
			<path class="st5" d="M477.5,64.7c6.6,0,11,2.3,13.3,4.7c4.5,4.4,5.1,10.8,5.1,15.1v22.5c0,2.8-0.2,6.1-2.6,8.6
				c-2.5,2.6-6.1,2.8-9.1,2.8h-31.7c-3.4,0-7-0.2-9.9-2.8c-4.2-3.8-4.4-10.9-4.4-15.1c0-4.7,0.4-10.4,4.7-13.6
				c2.9-2.2,6.4-2.3,9.5-2.3H476v-0.8c0-0.9-0.1-2.3-1-3.6c-1.5-2-4.1-2.1-6.1-2.1h-27V64.7H477.5z M461.8,97.4
				c-0.6,0-2,0.1-2.9,0.9c-0.7,0.7-0.8,1.6-0.8,2.5c0,0.8,0.1,1.6,0.8,2.3c0.7,0.6,1.8,0.9,2.7,0.9H472c1,0,2.3-0.2,2.9-0.7
				c0.9-0.7,1-1.7,1-2.6v-3.4H461.8z"/>
			<path class="st5" d="M502,47.5h19.9v71.1H502V47.5z"/>
			<path class="st5" d="M581.8,69.6c6.7,6,7.1,16.7,7.1,22s-0.4,16-7.1,22c-5.9,5.2-15.4,5.5-24,5.5s-18.1-0.3-24-5.5
				c-6.7-6-7.1-16.7-7.1-22s0.4-16,7.1-22c5.9-5.2,15.4-5.5,24-5.5S575.9,64.4,581.8,69.6z M549,101.1c0.4,0.6,2.7,3.7,8.8,3.7
				c5.4,0,7.8-2.3,8.7-3.7c1.6-2.2,2-5.6,2-9.4c0-5.7-0.9-8.2-1.9-9.6c-1-1.3-3.4-3.5-8.8-3.5c-5.5,0-7.8,2.1-8.8,3.5
				c-0.7,1-1.9,3.4-1.9,9.6C547.1,97.5,548.2,100,549,101.1z"/>
			<path class="st5" d="M596.3,123.8h24c2.1,0,5.3,0.1,7.3-1.4c1.1-0.9,2-2.4,2.3-3.9h-17.2c-5.7,0-11.9-0.4-16-6.8
				c-2.9-4.6-4.2-11-4.2-20.3c0-10.5,1.5-15.6,5.5-20.2c4.1-4.8,8.6-6.5,17.1-6.5h22.1c3.1,0,6.8,0.2,9.4,2.4
				c2.7,2.3,3.1,5.8,3.1,8.1v37.3c0,7.1-0.8,12.9-4.3,17.2c-4.1,5.2-10.9,7.1-19.1,7.1h-30.2L596.3,123.8L596.3,123.8z M629.9,83.4
				c0-1.4-0.2-2.5-1.5-3.5c-1-0.7-2.1-0.8-3.1-0.8H623c-2.8,0-5.9,0.2-8,3c-0.9,1.1-2.1,3.5-2.1,10.1c0,4.8,0.8,7.6,2.2,9.2
				c2.5,2.9,6.3,2.7,9.1,2.7h5.7C629.9,104.1,629.9,83.4,629.9,83.4z"/>
			<path class="st5" d="M675.9,64.7v26.8c0,5.1,0.8,7.6,1.9,9.2c2.2,3.2,6.1,3.4,8.4,3.4h3.7c1.6,0,2.7-0.4,3.5-1.1c1-1,1-2.2,1-3.3
				v-35h19.9v42.9c0,3-0.4,6.1-3.4,8.5c-2.7,2.2-6.5,2.4-8.7,2.4h-24.4c-7.6,0-12.3-2.2-15-4.6c-5.6-4.6-6.8-11.8-6.8-19.9V64.7
				L675.9,64.7L675.9,64.7z"/>
			<path class="st5" d="M719.7,104.1h29.3c0.3,0,0.9-0.2,1.2-0.4c0.3-0.2,0.5-0.5,0.5-1c0-0.7-0.5-1-0.9-1.2
				c-0.7-0.4-1.8-0.7-6.1-2.1l-11.6-3.8c-4.9-1.6-9-3.8-11.1-7.1c-1.5-2.5-2-6.4-2-9c0-3.4,0.6-6.8,2.5-9.6
				c2.8-4.3,6.9-5.1,12.5-5.1h36v13.8h-29.3c-0.7,0-1.5-0.1-2.3,0.1c-0.5,0.1-0.9,0.2-0.9,0.9c0,0.8,0.5,1,1.1,1.2
				c2.4,0.8,1.7,0.7,4.1,1.5l13.6,4.6c5.7,1.9,9.9,3.5,12.4,7.3c2.5,3.7,2.7,8,2.7,10.4c0,4-0.8,8.5-4.5,11.5
				c-2.8,2.2-6.1,2.5-8.8,2.5h-38.5L719.7,104.1L719.7,104.1z"/>
		</g>
	</g>
	<g id="netwerk_8_">
		<g id="netwerk_11_">
			<path class="st6" d="M777.3,72.8c0-1.4,0.1-3.6,1.2-5c1.4-1.8,3.7-2,5.3-2h19.3c5.1,0,9.2,0.7,12.5,4c1.6,1.6,4.2,5.1,4.2,12.5
				v37.4h-5.3v-36c0-4.6-0.5-7.3-2.3-9.6c-2.2-2.8-5.3-3.4-8.7-3.4h-19.1c-0.5,0-1.1,0-1.4,0.4c-0.3,0.4-0.3,1.2-0.3,1.6v47h-5.3
				L777.3,72.8L777.3,72.8z"/>
			<path class="st6" d="M846.5,119.6c-4.4,0-10.1-1.1-14.2-6.6c-4.2-5.4-4.4-12.2-4.4-20.1c0-7.5,0.4-16.7,7.2-22.3
				c4.9-4.1,11.5-4.8,16.9-4.8c3.8,0,9.3,0.5,13.7,3c2.1,1.3,8.6,5.8,8.6,17.1c0,1.5-0.1,5.2-2.2,7c-1.6,1.4-4.2,1.6-5.7,1.6h-32.8
				c-0.1,3.1,0.1,8.1,0.9,11c1.2,4.4,4.9,9.3,12,9.3h26.4v4.8L846.5,119.6L846.5,119.6z M866.4,89.8c2.3,0,2.2-2.8,2.2-3.6
				c0-5.3-1.8-8.8-3.7-11c-3.9-4.6-9.1-4.7-13.9-4.7c-5.4,0-11.2,0.2-14.9,6.5c-2.1,3.6-2.4,7.4-2.5,12.7H866.4z"/>
			<path class="st6" d="M902.4,119.6c-4.6,0-9.6,0.2-13-3.1c-3.4-3.3-3.7-8.5-3.7-14.9v-31h-7.4v-4.8h7.4V48.5h5.3v17.3h14.8v4.8
				h-14.8v29.9c0,4.6-0.3,10.8,3,13.1c1.2,0.8,3.6,1.3,9.5,1.3h2.8v4.8C906.5,119.6,902.4,119.6,902.4,119.6z"/>
			<path class="st6" d="M921.8,113.3c0.2,0.7,0.6,1.6,1.1,1.6c0.6,0,0.9-1.2,1-1.5l11.5-43.8c1-3.8,3.2-4.5,4.9-4.5
				c1.6,0,3.9,0.7,4.9,4.5l11.5,43.8c0.1,0.3,0.4,1.5,1,1.5c0.5,0,0.9-0.9,1.1-1.6l12.1-47.5h5.3l-13.2,50c-0.6,2.3-1.8,4.5-5.2,4.5
				c-4,0-5.1-3-5.5-4.6l-11.2-42c-0.1-0.6-0.4-1.8-0.8-1.8c-0.4,0-0.7,1.2-0.8,1.8l-11.2,42c-0.4,1.5-1.5,4.6-5.5,4.6
				c-3.3,0-4.6-2.1-5.2-4.5l-13.2-50h5.3L921.8,113.3z"/>
			<path class="st6" d="M996.8,119.6c-4.4,0-10.1-1.1-14.2-6.6c-4.2-5.4-4.4-12.2-4.4-20.1c0-7.5,0.4-16.7,7.2-22.3
				c4.9-4.1,11.5-4.8,16.9-4.8c3.8,0,9.3,0.5,13.7,3c2.1,1.3,8.6,5.8,8.6,17.1c0,1.5-0.1,5.2-2.2,7c-1.6,1.4-4.2,1.6-5.7,1.6h-32.8
				c-0.1,3.1,0.1,8.1,0.9,11c1.2,4.4,4.9,9.3,12,9.3h26.4v4.8L996.8,119.6L996.8,119.6z M1016.7,89.8c2.3,0,2.2-2.8,2.2-3.6
				c0-5.3-1.8-8.8-3.7-11c-3.9-4.6-9.1-4.7-13.9-4.7c-5.4,0-11.2,0.2-14.9,6.5c-2.1,3.6-2.4,7.4-2.5,12.7H1016.7z"/>
			<path class="st6" d="M1032.8,84.3c0-5.5,0.7-10.3,4.8-14.1c2.2-2.1,6-4.4,13.2-4.4h3.7v4.8h-3.2c-2.9,0-7.4,0.3-10.4,3.8
				c-2.2,2.7-2.7,6.8-2.7,11.2v34.1h-5.3L1032.8,84.3L1032.8,84.3z"/>
			<path class="st6" d="M1058.4,119.6V48.5h5.3v71.1H1058.4z M1093.7,119.6l-21.8-20.1c-1.2-1.1-4.2-4.1-4.2-7.7
				c0-2.9,1.6-5.2,4.3-7.7l19.5-18.3h7.1l-23.4,21.9c-1.4,1.4-1.8,2.9-1.8,3.9c0,1.8,1.4,3.8,2.8,5.1l24.8,22.9L1093.7,119.6
				L1093.7,119.6z"/>
		</g>
		<g id="netwerk_10_">
			<g>
				<path class="st7" d="M776.2,71.7c0-1.4,0.1-3.6,1.2-5c1.4-1.8,3.7-2,5.3-2H802c5.1,0,9.2,0.7,12.5,4c1.6,1.6,4.2,5.1,4.2,12.5
					v37.4h-5.3V82.5c0-4.6-0.5-7.3-2.3-9.6c-2.2-2.8-5.3-3.4-8.7-3.4h-19.1c-0.5,0-1.1,0-1.4,0.4c-0.3,0.4-0.3,1.2-0.3,1.6v47h-5.3
					L776.2,71.7L776.2,71.7z"/>
				<path class="st6" d="M819,118.8h-5.8V82.5c0-4.8-0.6-7.3-2.3-9.5c-2.1-2.7-4.9-3.3-8.5-3.3h-19.1c-0.5,0-1,0-1.2,0.3
					c-0.3,0.3-0.3,1.1-0.3,1.5v47.3H776V71.7c0-1.6,0.1-3.7,1.3-5.1c1.5-1.9,3.8-2.1,5.5-2.1H802c4.5,0,9.1,0.5,12.7,4
					c2.8,2.8,4.2,7.1,4.2,12.7V118.8z M813.7,118.3h4.8V81.2c0-5.5-1.4-9.6-4.1-12.3c-3.4-3.4-7.9-3.9-12.3-3.9h-19.3
					c-1.7,0-3.7,0.2-5.1,1.9c-1,1.3-1.2,3.3-1.2,4.8v46.6h4.7V71.5c0-0.5,0-1.3,0.4-1.8c0.4-0.5,1.1-0.5,1.6-0.5h19.1
					c3.2,0,6.6,0.4,8.9,3.5c2,2.6,2.4,5.5,2.4,9.8V118.3z"/>
			</g>
			<g>
				<path class="st7" d="M845.4,118.6c-4.4,0-10.1-1.1-14.2-6.6c-4.2-5.4-4.4-12.2-4.4-20.1c0-7.5,0.4-16.7,7.2-22.3
					c4.9-4.1,11.5-4.8,16.9-4.8c3.8,0,9.3,0.5,13.7,3c2.1,1.3,8.6,5.8,8.6,17.1c0,1.5-0.1,5.2-2.2,7c-1.6,1.4-4.2,1.6-5.7,1.6h-32.8
					c-0.1,3.1,0.1,8.1,0.9,11c1.2,4.4,4.9,9.3,12,9.3h26.4v4.8L845.4,118.6L845.4,118.6z M865.3,88.7c2.3,0,2.2-2.8,2.2-3.6
					c0-5.3-1.8-8.8-3.7-11c-3.9-4.6-9.1-4.7-13.9-4.7c-5.4,0-11.2,0.2-14.9,6.5c-2.1,3.6-2.4,7.4-2.5,12.7H865.3z"/>
				<path class="st6" d="M872.1,118.8h-26.7c-6.2,0-11-2.3-14.4-6.7c-4.1-5.3-4.4-11.7-4.4-20.3c0-8,0.6-16.9,7.3-22.5
					c5.2-4.3,12.2-4.8,17-4.8c3.9,0,9.5,0.5,13.8,3.1c4,2.5,8.8,7.5,8.8,17.3c0,3.5-0.8,5.9-2.3,7.2c-1.3,1.1-3.3,1.7-5.9,1.7h-32.5
					c-0.1,3.3,0.2,8,0.9,10.6c0.6,2.1,3.2,9.2,11.7,9.2h26.7L872.1,118.8L872.1,118.8z M850.9,65c-4.7,0-11.6,0.5-16.7,4.7
					c-6.6,5.5-7.1,14.3-7.1,22.1c0,8.4,0.3,14.8,4.3,19.9c3.3,4.3,8,6.5,14,6.5h26.1v-4.2h-26.1c-7.1,0-11-4.9-12.2-9.5
					c-0.8-2.7-1-7.7-0.9-11l0-0.3h33.1c2.4,0,4.3-0.5,5.5-1.6c1.4-1.2,2.1-3.5,2.1-6.8c0-9.6-4.6-14.4-8.5-16.8
					C860.2,65.5,854.7,65,850.9,65z M865.3,89h-33.1l0-0.3c0.1-5,0.3-9.1,2.6-12.8c4-6.6,10.2-6.6,15.2-6.6c4.5,0,10.1,0,14.1,4.8
					c1.7,2,3.7,5.5,3.7,11.1l0,0.1c0,0.6,0,2.2-0.9,3.1C866.5,88.8,866,89,865.3,89z M832.8,88.4h32.5c0.5,0,0.9-0.1,1.2-0.5
					c0.7-0.7,0.7-2.2,0.7-2.7v-0.1c0-5.5-2-8.9-3.6-10.8c-3.9-4.6-9.3-4.6-13.7-4.6c-4.9,0-10.9,0-14.7,6.4
					C833.1,79.7,832.9,83.6,832.8,88.4z"/>
			</g>
			<g>
				<path class="st7" d="M901.4,118.6c-4.6,0-9.6,0.2-13-3.1c-3.4-3.2-3.7-8.5-3.7-14.9v-31h-7.4v-4.8h7.4V47.5h5.3v17.3h14.8v4.8
					H890v29.9c0,4.6-0.3,10.8,3,13.1c1.2,0.8,3.6,1.3,9.5,1.3h2.8v4.8H901.4z"/>
				<path class="st6" d="M899.9,118.8c-4.5,0-8.7-0.2-11.7-3.2c-3.5-3.3-3.7-8.8-3.7-15.1V69.8H877v-5.3h7.4V47.2h5.8v17.3h14.8v5.3
					h-14.8l0,30.6c0,4.3,0,9.7,2.9,11.8c1.3,0.9,4.1,1.3,9.4,1.3h3.1v5.3L899.9,118.8z M877.6,69.2h7.4v31.2
					c0,6.2,0.3,11.5,3.6,14.7c2.8,2.8,7,3.1,11.3,3.1l5.3,0v-4.2h-2.6c-5.4,0-8.2-0.4-9.7-1.4c-3.2-2.2-3.2-7.8-3.2-12.3l0-1V69.2
					h14.8V65h-14.8V47.7H885V65h-7.4L877.6,69.2L877.6,69.2z"/>
			</g>
			<g>
				<path class="st7" d="M920.8,112.3c0.2,0.7,0.6,1.6,1.1,1.6c0.6,0,0.9-1.2,1-1.5l11.5-43.8c1-3.8,3.2-4.5,4.9-4.5
					c1.6,0,3.9,0.7,4.9,4.5l11.5,43.8c0.1,0.3,0.4,1.5,1,1.5c0.5,0,0.9-0.9,1.1-1.6l12.1-47.5h5.3l-13.2,50
					c-0.6,2.3-1.8,4.5-5.2,4.5c-4,0-5.1-3-5.5-4.6l-11.2-42c-0.1-0.6-0.4-1.8-0.8-1.8c-0.4,0-0.7,1.2-0.8,1.8l-11.2,42
					c-0.4,1.5-1.5,4.6-5.5,4.6c-3.3,0-4.6-2.1-5.2-4.5l-13.2-50h5.3L920.8,112.3z"/>
				<path class="st6" d="M956.7,119.4c-3,0-4.9-1.6-5.7-4.8l-11.2-42c-0.1-0.8-0.4-1.6-0.6-1.6c-0.1,0.1-0.4,0.8-0.5,1.6l-11.2,42.1
					c-0.8,3.2-2.8,4.8-5.7,4.8c-3.8,0-4.9-2.7-5.4-4.7l-13.3-50.3h5.8l0,0.2l12.1,47.5c0.3,0.9,0.6,1.4,0.9,1.4
					c0.2,0,0.4-0.2,0.7-1.2l0-0.1l11.5-43.8c1-3.9,3.4-4.7,5.1-4.7c1.8,0,4.1,0.8,5.1,4.7l11.5,43.9c0.2,0.8,0.5,1.2,0.7,1.2
					c0.2,0,0.6-0.5,0.9-1.4l12.1-47.7h5.8l-0.1,0.3l-13.2,50C961.6,116.8,960.5,119.4,956.7,119.4z M939.3,70.5c0.7,0,1,1.4,1.1,2.1
					l11.2,42c0.8,2.9,2.5,4.4,5.2,4.4c3.4,0,4.4-2.3,4.9-4.3L974.8,65H970l-12,47.3c-0.2,0.6-0.6,1.8-1.4,1.8
					c-0.7,0-1.1-1.1-1.2-1.6l0-0.1l-11.5-43.8c-0.8-2.8-2.3-4.3-4.6-4.3s-3.8,1.4-4.6,4.3l-11.5,43.9c-0.2,0.5-0.5,1.6-1.2,1.6
					c-0.8,0-1.2-1.3-1.4-1.8l-12-47.3h-4.7l13.1,49.6c0.5,2,1.6,4.3,4.9,4.3c2.7,0,4.5-1.5,5.2-4.4l11.2-42
					C938.3,71.9,938.6,70.5,939.3,70.5z"/>
			</g>
			<g>
				<path class="st7" d="M995.7,118.6c-4.4,0-10.1-1.1-14.2-6.6c-4.2-5.4-4.4-12.2-4.4-20.1c0-7.5,0.4-16.7,7.2-22.3
					c4.9-4.1,11.5-4.8,16.9-4.8c3.8,0,9.3,0.5,13.7,3c2.1,1.3,8.6,5.8,8.6,17.1c0,1.5-0.1,5.2-2.2,7c-1.6,1.4-4.2,1.6-5.7,1.6h-32.8
					c-0.1,3.1,0.1,8.1,0.9,11c1.2,4.4,4.9,9.3,12,9.3h26.4v4.8L995.7,118.6L995.7,118.6z M1015.6,88.7c2.3,0,2.2-2.8,2.2-3.6
					c0-5.3-1.8-8.8-3.7-11c-3.9-4.6-9.1-4.7-13.9-4.7c-5.4,0-11.2,0.2-14.9,6.5c-2.1,3.6-2.4,7.4-2.5,12.7H1015.6z"/>
				<path class="st6" d="M1022.4,118.8h-26.7c-6.2,0-11-2.3-14.4-6.7c-4.1-5.3-4.4-11.8-4.4-20.3c0-8,0.6-16.9,7.3-22.5
					c5.2-4.3,12.2-4.8,17-4.8c3.9,0,9.5,0.5,13.8,3.1c4,2.5,8.8,7.5,8.8,17.3c0,3.5-0.8,5.9-2.3,7.2c-1.3,1.1-3.3,1.7-5.9,1.7h-32.5
					c-0.1,3.3,0.2,8,0.9,10.6c0.6,2.1,3.2,9.2,11.7,9.2h26.7L1022.4,118.8L1022.4,118.8z M1001.2,65c-4.7,0-11.6,0.5-16.7,4.7
					c-6.6,5.5-7.1,14.3-7.1,22.1c0,8.4,0.3,14.8,4.3,19.9c3.3,4.3,8,6.5,14,6.5h26.1v-4.2h-26.1c-7.1,0-11-4.9-12.2-9.5
					c-0.8-2.7-1-7.7-0.9-11l0-0.3h33.1c2.4,0,4.3-0.5,5.5-1.6c1.4-1.2,2.1-3.5,2.1-6.8c0-9.6-4.6-14.4-8.5-16.8
					C1010.5,65.5,1005,65,1001.2,65z M1015.6,89h-33.1l0-0.3c0.1-5,0.3-9.1,2.6-12.8c4-6.6,10.2-6.6,15.2-6.6c4.5,0,10.1,0,14.1,4.8
					c1.7,2,3.7,5.5,3.7,11.1l0,0.1c0,0.6,0,2.2-0.9,3.1C1016.8,88.8,1016.3,89,1015.6,89z M983.1,88.4h32.5c0.5,0,0.9-0.1,1.2-0.5
					c0.7-0.7,0.7-2.2,0.7-2.7v-0.1c0-5.5-2-8.9-3.6-10.8c-3.9-4.6-9.3-4.6-13.7-4.6c-4.9,0-10.9,0-14.7,6.4
					C983.5,79.7,983.2,83.6,983.1,88.4z"/>
			</g>
			<g>
				<path class="st7" d="M1031.7,83.2c0-5.5,0.7-10.3,4.8-14.1c2.2-2.1,6-4.4,13.2-4.4h3.7v4.8h-3.2c-2.9,0-7.4,0.3-10.4,3.8
					c-2.2,2.7-2.7,6.8-2.7,11.2v34.1h-5.3L1031.7,83.2L1031.7,83.2z"/>
				<path class="st6" d="M1037.2,118.8h-5.8V83.2c0-5.8,0.8-10.5,4.9-14.3c3.1-3,7.5-4.4,13.4-4.4h3.9v5.3h-3.5
					c-3.3,0-7.4,0.4-10.2,3.7c-2.4,2.9-2.7,7.4-2.7,11V118.8z M1032,118.3h4.7V84.4c0-3.7,0.3-8.3,2.8-11.3
					c2.9-3.4,7.2-3.9,10.6-3.9h3V65h-3.4c-5.7,0-10,1.4-13,4.3c-3.9,3.7-4.7,8.2-4.7,13.9V118.3z"/>
			</g>
			<g>
				<path class="st7" d="M1057.4,118.6V47.5h5.3v71.1C1062.7,118.6,1057.4,118.6,1057.4,118.6z M1092.6,118.6l-21.8-20.1
					c-1.2-1.1-4.2-4.1-4.2-7.7c0-2.9,1.6-5.2,4.3-7.7l19.5-18.3h7.1l-23.4,21.9c-1.4,1.4-1.8,2.9-1.8,3.9c0,1.8,1.4,3.8,2.8,5.1
					l24.8,22.9L1092.6,118.6L1092.6,118.6z"/>
				<path class="st6" d="M1100.6,118.8h-8.1l-0.1-0.1l-21.8-20.1c-2.8-2.5-4.2-5.3-4.2-7.9c0-3.1,1.7-5.4,4.3-7.9l19.6-18.4h7.9
					l-0.5,0.5l-23.4,21.9c-1.6,1.6-1.7,3.2-1.7,3.7c0,1.5,1,3.3,2.8,4.9L1100.6,118.8z M1092.7,118.3h6.5L1075,95.8
					c-0.9-0.8-2.9-3-2.9-5.3c0-0.5,0.1-2.3,1.9-4l22.9-21.5h-6.3l-19.4,18.2c-2.5,2.4-4.2,4.6-4.2,7.5c0,2.5,1.4,5.1,4.1,7.5
					L1092.7,118.3z M1062.9,118.8h-5.8V47.2h5.8V118.8z M1057.6,118.3h4.7V47.7h-4.7V118.3z"/>
			</g>
		</g>
		<g id="netwerk_9_">
			<path class="st7" d="M776.2,71.7c0-1.4,0.1-3.6,1.2-5c1.4-1.8,3.7-2,5.3-2H802c5.1,0,9.2,0.7,12.5,4c1.6,1.6,4.2,5.1,4.2,12.5
				v37.4h-5.3V82.5c0-4.6-0.5-7.3-2.3-9.6c-2.2-2.8-5.3-3.4-8.7-3.4h-19.1c-0.5,0-1.1,0-1.4,0.4c-0.3,0.4-0.3,1.2-0.3,1.6v47h-5.3
				L776.2,71.7L776.2,71.7z"/>
			<path class="st7" d="M845.4,118.6c-4.4,0-10.1-1.1-14.2-6.6c-4.2-5.4-4.4-12.2-4.4-20.1c0-7.5,0.4-16.7,7.2-22.3
				c4.9-4.1,11.5-4.8,16.9-4.8c3.8,0,9.3,0.5,13.7,3c2.1,1.3,8.6,5.8,8.6,17.1c0,1.5-0.1,5.2-2.2,7c-1.6,1.4-4.2,1.6-5.7,1.6h-32.8
				c-0.1,3.1,0.1,8.1,0.9,11c1.2,4.4,4.9,9.3,12,9.3h26.4v4.8L845.4,118.6L845.4,118.6z M865.3,88.7c2.3,0,2.2-2.8,2.2-3.6
				c0-5.3-1.8-8.8-3.7-11c-3.9-4.6-9.1-4.7-13.9-4.7c-5.4,0-11.2,0.2-14.9,6.5c-2.1,3.6-2.4,7.4-2.5,12.7H865.3z"/>
			<path class="st7" d="M901.4,118.6c-4.6,0-9.6,0.2-13-3.1c-3.4-3.2-3.7-8.5-3.7-14.9v-31h-7.4v-4.8h7.4V47.5h5.3v17.3h14.8v4.8
				H890v29.9c0,4.6-0.3,10.8,3,13.1c1.2,0.8,3.6,1.3,9.5,1.3h2.8v4.8H901.4z"/>
			<path class="st7" d="M920.8,112.3c0.2,0.7,0.6,1.6,1.1,1.6c0.6,0,0.9-1.2,1-1.5l11.5-43.8c1-3.8,3.2-4.5,4.9-4.5
				c1.6,0,3.9,0.7,4.9,4.5l11.5,43.8c0.1,0.3,0.4,1.5,1,1.5c0.5,0,0.9-0.9,1.1-1.6l12.1-47.5h5.3l-13.2,50c-0.6,2.3-1.8,4.5-5.2,4.5
				c-4,0-5.1-3-5.5-4.6l-11.2-42c-0.1-0.6-0.4-1.8-0.8-1.8c-0.4,0-0.7,1.2-0.8,1.8l-11.2,42c-0.4,1.5-1.5,4.6-5.5,4.6
				c-3.3,0-4.6-2.1-5.2-4.5l-13.2-50h5.3L920.8,112.3z"/>
			<path class="st7" d="M995.7,118.6c-4.4,0-10.1-1.1-14.2-6.6c-4.2-5.4-4.4-12.2-4.4-20.1c0-7.5,0.4-16.7,7.2-22.3
				c4.9-4.1,11.5-4.8,16.9-4.8c3.8,0,9.3,0.5,13.7,3c2.1,1.3,8.6,5.8,8.6,17.1c0,1.5-0.1,5.2-2.2,7c-1.6,1.4-4.2,1.6-5.7,1.6h-32.8
				c-0.1,3.1,0.1,8.1,0.9,11c1.2,4.4,4.9,9.3,12,9.3h26.4v4.8L995.7,118.6L995.7,118.6z M1015.6,88.7c2.3,0,2.2-2.8,2.2-3.6
				c0-5.3-1.8-8.8-3.7-11c-3.9-4.6-9.1-4.7-13.9-4.7c-5.4,0-11.2,0.2-14.9,6.5c-2.1,3.6-2.4,7.4-2.5,12.7H1015.6z"/>
			<path class="st7" d="M1031.7,83.2c0-5.5,0.7-10.3,4.8-14.1c2.2-2.1,6-4.4,13.2-4.4h3.7v4.8h-3.2c-2.9,0-7.4,0.3-10.4,3.8
				c-2.2,2.7-2.7,6.8-2.7,11.2v34.1h-5.3L1031.7,83.2L1031.7,83.2z"/>
			<path class="st7" d="M1057.4,118.6V47.5h5.3v71.1C1062.7,118.6,1057.4,118.6,1057.4,118.6z M1092.6,118.6l-21.8-20.1
				c-1.2-1.1-4.2-4.1-4.2-7.7c0-2.9,1.6-5.2,4.3-7.7l19.5-18.3h7.1l-23.4,21.9c-1.4,1.4-1.8,2.9-1.8,3.9c0,1.8,1.4,3.8,2.8,5.1
				l24.8,22.9L1092.6,118.6L1092.6,118.6z"/>
		</g>
	</g>
</g>
</svg>
