<?xml version="1.0" encoding="utf-8"?>
<!-- Generator: Adobe Illustrator 25.4.1, SVG Export Plug-In . SVG Version: 6.00 Build 0)  -->
<svg version="1.1" id="Layer_1" xmlns="http://www.w3.org/2000/svg" xmlns:xlink="http://www.w3.org/1999/xlink" x="0px" y="0px"
	 viewBox="0 0 257.6 198" style="enable-background:new 0 0 257.6 198;" xml:space="preserve">
<style type="text/css">
	.st0{fill:#FFFFFF;}
	.st1{fill:#1E93D2;}
	.st2{fill:#868686;}
	.st3{fill:#EDEDED;}
</style>
<polygon class="st0" points="136.3,33.1 130.7,37.7 121,37.7 117.5,33.6 91,28 67.4,22.3 28.1,14.5 20.4,20.5 17.8,30.8 17.8,91.2 
	17,149.2 42.8,157.4 83.1,168.1 103.4,174.6 150,174 167.9,165.5 235.3,152.6 238.9,140.6 236.3,18.1 219.8,14.5 171.2,23.3 "/>
<path class="st1" d="M126.4,45.4c-30.6,0-55.3,24.7-55.3,55.3S95.8,156,126.4,156s55.3-24.7,55.3-55.3
	C181.9,70.1,156.9,45.4,126.4,45.4 M190.7,98.9c0,38.2-28.5,59.5-64.3,95c-36.5-35.2-64.3-56.1-64.3-95c0-35.5,28.8-64.3,64.3-64.3
	C161.9,34.6,190.7,63.4,190.7,98.9"/>
<path class="st2" d="M149.2,36.2c0,0,9.5-7.8,39.8-13.3s35.5-4.1,35.5-4.1s6.7,0.5,8.8,7.5c0.3,1.1,0.5,2.4,0.5,3.5l0.8,110.3
	c0,0,0.1,7-8.3,8.7c-4.8,0-28,3.1-34.9,4.5c-7,1.5-24,5.4-28.3,7.5L150,174c0,0,3.7,1.9,12.8-1.8c9.8-4.1,38.9-10.4,38.9-10.4
	s20.6-2.4,27.2-3.2c6.9-0.8,7.1-1.7,7.1-1.7s8.8-4.9,10-17.1c1.1-12.4-0.9-113.2-0.9-113.2s-0.1-14-19.2-17.9
	c-21.5-4.4-63.4,10-70.1,12.8c-6.7,2.8-13.5,6-16.9,9.3c-3.2,3.1-2.6,2.3-2.6,2.3S142,33.3,149.2,36.2"/>
<path class="st2" d="M104.3,36.7c0,0-9.5-7.8-39.8-13.3s-35.5-4-35.5-4s-8,0.6-9.3,9.5l-0.8,111.8c0,0-0.1,7,8.3,8.7
	c4.8,0,27.9,3.1,34.9,4.5s24,5.4,28.3,7.5l13,13.2c0,0-3.7,1.9-12.8-1.8c-9.8-4.1-38.9-10.4-38.9-10.4s-20.6-2.4-27.2-3.2
	c-6.9-0.8-7.1-1.7-7.1-1.7s-8.8-4.9-10-17.1C6.6,128,8.6,27.1,8.6,27.1S8.7,13,27.9,9.2C49.4,4.8,91.3,19.2,98,22s13.5,6,16.9,9.3
	c3.2,3.1,2.6,2.3,2.6,2.3S111.5,33.9,104.3,36.7"/>
<path class="st3" d="M175.4,100.5c0-26.9-21.8-48.8-48.8-48.8c-11.9,0-22.7,4.2-31.2,11.3l68.6,68.6
	C171.1,123.1,175.4,112.3,175.4,100.5"/>
<path class="st3" d="M95.5,63c-10.7,9-17.6,22.3-17.6,37.4c0,26.9,21.8,48.8,48.8,48.8c15.1,0,28.5-6.8,37.4-17.6L95.5,63z"/>
<path class="st1" d="M122.9,143.7c-1.6-0.5-3.1-0.9-4.5-1.5c-1.7-0.7-3.3-1.4-4.9-2.3c-1.9-1-3.7-2.2-5.6-3.3
	c-2.8-1.9-5.6-4.2-7.9-6.7c-2.6-2.7-5-5.8-6.9-9.1c-1.6-2.7-2.8-5.6-3.9-8.5c-0.6-1.7-1-3.2-1.4-5.1l-0.1-0.3
	c-0.3-1.5-0.6-3.1-0.7-4.5c0-0.6-0.1-1-0.1-1.6c0-0.9-0.1-1.9-0.1-2.8c0-1.5,0.1-3.1,0.2-4.4c0.1-1.6,0.3-3.2,0.7-4.8
	c0.3-1.8,0.8-3.5,1.2-5.2c0.6-2.2,1.2-4.1,1.9-5.9c1-2.6,2-4.9,3.1-6.7c1.7-3.3,3.2-5.3,3.3-5.7L95.9,66c-0.2,0.2-1.6,2.3-3.3,5.7
	c-0.9,1.8-2,4.1-3.1,6.7c-0.7,1.8-1.4,3.7-1.9,5.9c-0.5,1.7-0.9,3.4-1.2,5.2c-0.2,1.6-0.5,3.1-0.7,4.8c-0.1,1.5-0.2,2.9-0.2,4.4
	c0,0.9,0,1.8,0.1,2.8c0,0.6,0.1,1,0.1,1.6c0.1,1.6,0.3,3.1,0.7,4.5v0.1c0.3,1.8,0.8,3.5,1.4,5.2c1,2.9,2.3,5.8,3.9,8.5
	c1.9,3.3,4.3,6.3,6.9,9.1c2.4,2.5,5,4.8,7.9,6.7c1.8,1.2,3.6,2.4,5.6,3.3c1.6,0.8,3.2,1.6,4.9,2.2c1.5,0.6,3.1,1.1,4.5,1.5l0,0
	c1.5,0.5,2.8,0.7,4.3,1c1.4,0.2,2.8,0.5,4.3,0.6c1,0.1,2.2,0.1,3.2,0.2l1.4-0.7c-1,0-2.2-0.1-3.2-0.2c-1.5-0.1-2.8-0.3-4.3-0.6
	C125.7,144.3,124.4,144,122.9,143.7L122.9,143.7z"/>
<path class="st1" d="M85.7,101.5c1.5,25.1,23.8,44.1,47.7,44.7c-0.8,0.1-1,0.2-1.2,0.2c-1.5,0.2-1.6,0.2-1.6,0.2c-0.1,0-0.2,0-0.2,0
	c-0.2,0-0.3,0-0.5,0s-0.2,0-0.3,0c-0.6,0-0.7,0-0.7,0c-0.2,0-0.3,0-0.3,0c-0.2,0-0.3,0-0.3,0c-0.2,0-0.3,0-0.3,0c-0.2,0-0.3,0-0.5,0
	s-0.3,0-0.5,0c-0.5,0-0.7,0-0.8,0s-0.1,0-0.2,0c-0.2,0-0.5,0-0.7,0c-0.3,0-0.6,0-0.8,0c-19.3-0.7-37.8-15.3-42.3-34
	c0-0.1,0-0.1,0-0.2c0-0.2-0.1-0.2-0.1-0.3c0-0.1,0-0.2-0.1-0.3c0-0.2-0.1-0.3-0.1-0.5s-0.1-0.3-0.1-0.6c0-0.2-0.1-0.5-0.1-0.6
	c0-0.3-0.1-0.5-0.1-0.7c0-0.3-0.1-0.5-0.1-0.7c-0.1-0.6-0.1-1-0.2-1.5c0-0.3-0.1-0.7-0.1-0.9c0-0.5-0.1-0.7-0.1-0.9
	c0-0.3,0-0.6-0.1-0.8c0-0.5,0-0.7-0.1-1c0-0.5,0-0.8,0-1c0-0.3,0-0.7,0-0.9v-0.5c0-0.1,0-0.2,0-0.3c0-0.1,0-0.3,0-0.5s0-0.2,0-0.2
	c0-0.1,0-0.3,0-0.5c0-0.1,0-0.1,0-0.2c0-0.2,0-0.3,0-0.6c0-0.3,0-0.7,0-0.9c0-0.2,0-0.6,0-0.8c0-0.3,0-0.6,0-0.8c0-0.1,0-0.1,0-0.2
	c0-0.2,0-0.3,0-0.6c0-0.1,0-0.2,0-0.3c0-0.1,0-0.3,0-0.5s0-0.2,0-0.2c0-0.2,0-0.3,0.1-0.6c0-0.1,0-0.1,0-0.2c0-0.2,0-0.5,0.1-0.6
	c0.1-0.8,0.2-1.2,0.3-1.8c0-0.1,0-0.1,0-0.2c0-0.2,0.1-0.5,0.1-0.6s0-0.2,0.1-0.3c0-0.2,0.1-0.3,0.1-0.6c0-0.1,0-0.2,0.1-0.3
	c0-0.2,0.1-0.3,0.1-0.6c0-0.1,0-0.2,0.1-0.3c0-0.2,0.1-0.3,0.1-0.6c0-0.1,0-0.2,0.1-0.3c0-0.2,0.1-0.5,0.2-0.6c0-0.1,0-0.1,0.1-0.2
	c0.1-0.3,0.2-0.6,0.2-0.9c0.1-0.3,0.2-0.6,0.2-0.9c0-0.1,0.1-0.2,0.1-0.2c0.1-0.2,0.1-0.5,0.2-0.6c0-0.1,0.1-0.2,0.1-0.3
	c0.1-0.2,0.1-0.3,0.2-0.6c0-0.1,0.1-0.2,0.1-0.3c0.1-0.2,0.1-0.3,0.2-0.6c0-0.1,0.1-0.2,0.1-0.3c0.1-0.2,0.1-0.3,0.2-0.6
	c0-0.1,0.1-0.2,0.1-0.3c0.1-0.2,0.2-0.3,0.2-0.6c0-0.1,0.1-0.2,0.1-0.2c0.1-0.3,0.2-0.6,0.5-0.9c0.1-0.3,0.3-0.6,0.5-0.9
	c0-0.1,0.1-0.2,0.1-0.3c0.1-0.2,0.2-0.3,0.3-0.6c0.1-0.1,0.1-0.2,0.2-0.3c0.1-0.2,0.2-0.3,0.3-0.6c0.1-0.1,0.1-0.2,0.2-0.3
	c0.1-0.1,0.2-0.3,0.3-0.6c0.1-0.1,0.1-0.2,0.2-0.3c0.1-0.2,0.2-0.3,0.3-0.6c0.1-0.1,0.1-0.2,0.2-0.3c0.1-0.2,0.2-0.3,0.3-0.6
	c0.1-0.1,0.1-0.2,0.2-0.3c0.2-0.2,0.5-0.6,0.6-0.9c3.3-4.3,6.6-6.9,6.7-7C95.5,66.9,84.6,82.5,85.7,101.5"/>
<path class="st2" d="M112.9,51c-17.1,9.2-4,26.1,11.2,45.6c22.7,29.3,35.2,44.9,19.2,51.1c-2.6,1-5.3,1.5-6.7,1.8
	c15.2-5,5.7-17.7-10.8-38.4c-21.3-26.6-35.3-49.4-19.4-57.8C108.2,52.3,110.4,51.5,112.9,51"/>
<path class="st2" d="M113.2,50.9c-17.9,8.2-1,21.5,18.6,37.2c28.7,22.8,42.3,35.5,31.2,47.3c-2.6,2.7-4.3,3.7-5.3,4.5
	c11.3-11.6-1.1-22.1-30.3-45.9c-19.7-16.1-35.7-32.7-20.6-40.7C108.6,52.4,110.4,51.5,113.2,50.9"/>
<path class="st2" d="M135.5,49.5c-20.5-2.3-7.9,13.7-3.2,19.7c7.5,9.4,15.8,18,23.1,27.7c2.7,3.6,6.5,9.1,9.2,14.7
	c6,13,2.7,19.2-1.7,23.9c-1.5,1.6-1.8,1.8-1.8,1.8c-1.9,1.7-4.3,3.3-4.3,3.3c10.8-10.1,6.7-23.9-18-53.6
	c-15.8-18.9-30.3-38-9.4-38.1C131.4,48.8,133.7,49.3,135.5,49.5"/>
</svg>
